<?xml version="1.0" encoding="utf-8"?>
<!-- Generator: Adobe Illustrator 26.0.1, SVG Export Plug-In . SVG Version: 6.00 Build 0)  -->
<svg version="1.1" id="Ñëîé_1" xmlns="http://www.w3.org/2000/svg" xmlns:xlink="http://www.w3.org/1999/xlink" x="0px" y="0px"
	 viewBox="0 0 1864 1416" style="enable-background:new 0 0 1864 1416;" xml:space="preserve">
<style type="text/css">
	.st0{fill:url(#SVGID_1_);}
	.st1{fill:#564BCF;}
	.st2{fill:url(#SVGID_00000013909357543166096200000015039540839932319392_);}
	.st3{fill:#806AB7;}
	.st4{fill:#FFFFFF;}
	.st5{opacity:0.88;}
	.st6{fill:url(#SVGID_00000109718380094078928360000015865965119609866890_);}
	.st7{fill:url(#SVGID_00000152227615824572787390000013668788026681417109_);}
	.st8{fill:url(#SVGID_00000161626773680215785000000003337673541903424423_);}
	.st9{fill:url(#SVGID_00000151519939527365421330000011092079552912369794_);}
	.st10{fill:url(#SVGID_00000147209174470144354640000005171773316928225413_);}
	.st11{fill:url(#SVGID_00000173157887874758290420000008508144623891751049_);}
	.st12{fill:url(#SVGID_00000034057593028597159800000001406385710776511890_);}
	.st13{opacity:0.49;fill:url(#SVGID_00000139983576947630208540000015733791671257784718_);}
	.st14{fill:url(#SVGID_00000101086528089576817270000010087610153112136583_);}
	.st15{fill:url(#SVGID_00000132054988604717087640000007912988606349809056_);}
	.st16{fill:url(#SVGID_00000142883177486177273270000002709430661568656292_);}
	.st17{fill:url(#SVGID_00000013876464169047123230000011380567971100267425_);}
	.st18{fill:url(#SVGID_00000112597886485101403290000014040278023970387633_);}
	.st19{fill:url(#SVGID_00000163778550464130598430000007496849398518374049_);}
	.st20{fill:url(#SVGID_00000023244176156876374690000011159236177615071144_);}
	.st21{fill:url(#SVGID_00000173870571702953592430000011242334177425006731_);}
	.st22{opacity:0.5;fill:#FFFFFF;}
	.st23{fill:#F0588D;}
	.st24{fill:url(#SVGID_00000093176971893544269120000007699738450746511524_);}
	.st25{opacity:0.49;fill:url(#SVGID_00000153667816908625832330000001764602949490337664_);}
	.st26{fill:url(#SVGID_00000148643480856435580320000004724140909461680545_);}
	.st27{fill:url(#SVGID_00000044880985415413799650000016287498451206022293_);}
	.st28{fill:url(#SVGID_00000168086494198316170590000014572978606692003225_);}
	.st29{fill:url(#SVGID_00000016765298345577298150000016238160323360853147_);}
	.st30{fill:url(#SVGID_00000038392120728071891350000005501445423790826659_);}
	.st31{fill:url(#SVGID_00000096776467943975830900000013209620697897808282_);}
	.st32{opacity:0.83;fill:url(#SVGID_00000018950661357836490510000003485031162872968603_);}
	.st33{fill:url(#SVGID_00000067945465047142138190000003290297135000336000_);}
	.st34{opacity:0.57;}
</style>
<g>
	<g>
		<g>
			<linearGradient id="SVGID_1_" gradientUnits="userSpaceOnUse" x1="344.7173" y1="736.139" x2="1636.6887" y2="736.139">
				<stop  offset="0" style="stop-color:#C1C0FF"/>
				<stop  offset="1" style="stop-color:#D7D5FF"/>
			</linearGradient>
			<path class="st0" d="M1609.36,338.01H372.04c-15.09,0-27.33,12.23-27.33,27.33v768.93h1291.97V365.34
				C1636.69,350.25,1624.45,338.01,1609.36,338.01z"/>
			<rect x="375.74" y="369.03" class="st1" width="1229.93" height="727.72"/>
			
				<linearGradient id="SVGID_00000098942040504972512890000017693673995326242688_" gradientUnits="userSpaceOnUse" x1="990.703" y1="1141.158" x2="990.703" y2="1252.4507">
				<stop  offset="0" style="stop-color:#D9D5FF"/>
				<stop  offset="1" style="stop-color:#F9F9FF"/>
			</linearGradient>
			<path style="fill:url(#SVGID_00000098942040504972512890000017693673995326242688_);" d="M1635.7,1200.64h-1290
				c-28.28,0-51.21-22.93-51.21-51.21v-21.66h1392.41v21.66C1686.91,1177.72,1663.98,1200.64,1635.7,1200.64z"/>
			<polygon class="st3" points="1068,1156.33 913.4,1156.33 901.58,1127.77 1079.82,1127.77 			"/>
		</g>
		<g>
			<path class="st4" d="M399.44,1052.49c-0.95,0-1.72-0.77-1.72-1.72v-11.49c0-0.95,0.77-1.72,1.72-1.72c0.95,0,1.72,0.77,1.72,1.72
				v11.49C401.17,1051.72,400.4,1052.49,399.44,1052.49z M399.44,1023.76c-0.95,0-1.72-0.77-1.72-1.72v-11.49
				c0-0.95,0.77-1.72,1.72-1.72c0.95,0,1.72,0.77,1.72,1.72v11.49C401.17,1022.99,400.4,1023.76,399.44,1023.76z M399.44,995.03
				c-0.95,0-1.72-0.77-1.72-1.72v-11.49c0-0.95,0.77-1.72,1.72-1.72c0.95,0,1.72,0.77,1.72,1.72v11.49
				C401.17,994.26,400.4,995.03,399.44,995.03z M399.44,966.31c-0.95,0-1.72-0.77-1.72-1.72v-11.49c0-0.95,0.77-1.72,1.72-1.72
				c0.95,0,1.72,0.77,1.72,1.72v11.49C401.17,965.53,400.4,966.31,399.44,966.31z M399.44,937.58c-0.95,0-1.72-0.77-1.72-1.72
				v-11.49c0-0.95,0.77-1.72,1.72-1.72c0.95,0,1.72,0.77,1.72,1.72v11.49C401.17,936.81,400.4,937.58,399.44,937.58z M399.44,908.85
				c-0.95,0-1.72-0.77-1.72-1.72v-11.49c0-0.95,0.77-1.72,1.72-1.72c0.95,0,1.72,0.77,1.72,1.72v11.49
				C401.17,908.08,400.4,908.85,399.44,908.85z M399.44,880.12c-0.95,0-1.72-0.77-1.72-1.72v-11.49c0-0.95,0.77-1.72,1.72-1.72
				c0.95,0,1.72,0.77,1.72,1.72v11.49C401.17,879.35,400.4,880.12,399.44,880.12z M399.44,851.39c-0.95,0-1.72-0.77-1.72-1.72
				v-11.49c0-0.95,0.77-1.72,1.72-1.72c0.95,0,1.72,0.77,1.72,1.72v11.49C401.17,850.62,400.4,851.39,399.44,851.39z M399.44,822.67
				c-0.95,0-1.72-0.77-1.72-1.72v-11.49c0-0.95,0.77-1.72,1.72-1.72c0.95,0,1.72,0.77,1.72,1.72v11.49
				C401.17,821.9,400.4,822.67,399.44,822.67z M399.44,793.94c-0.95,0-1.72-0.77-1.72-1.72v-11.49c0-0.95,0.77-1.72,1.72-1.72
				c0.95,0,1.72,0.77,1.72,1.72v11.49C401.17,793.17,400.4,793.94,399.44,793.94z M399.44,765.21c-0.95,0-1.72-0.77-1.72-1.72V752
				c0-0.95,0.77-1.72,1.72-1.72c0.95,0,1.72,0.77,1.72,1.72v11.49C401.17,764.44,400.4,765.21,399.44,765.21z M399.44,736.48
				c-0.95,0-1.72-0.77-1.72-1.72v-11.49c0-0.95,0.77-1.72,1.72-1.72c0.95,0,1.72,0.77,1.72,1.72v11.49
				C401.17,735.71,400.4,736.48,399.44,736.48z M399.44,707.76c-0.95,0-1.72-0.77-1.72-1.72v-11.49c0-0.95,0.77-1.72,1.72-1.72
				c0.95,0,1.72,0.77,1.72,1.72v11.49C401.17,706.98,400.4,707.76,399.44,707.76z M399.44,679.03c-0.95,0-1.72-0.77-1.72-1.72
				v-11.49c0-0.95,0.77-1.72,1.72-1.72c0.95,0,1.72,0.77,1.72,1.72v11.49C401.17,678.26,400.4,679.03,399.44,679.03z M399.44,650.3
				c-0.95,0-1.72-0.77-1.72-1.72v-11.49c0-0.95,0.77-1.72,1.72-1.72c0.95,0,1.72,0.77,1.72,1.72v11.49
				C401.17,649.53,400.4,650.3,399.44,650.3z M399.44,621.57c-0.95,0-1.72-0.77-1.72-1.72v-11.49c0-0.95,0.77-1.72,1.72-1.72
				c0.95,0,1.72,0.77,1.72,1.72v11.49C401.17,620.8,400.4,621.57,399.44,621.57z M399.44,592.84c-0.95,0-1.72-0.77-1.72-1.72v-11.49
				c0-0.95,0.77-1.72,1.72-1.72c0.95,0,1.72,0.77,1.72,1.72v11.49C401.17,592.07,400.4,592.84,399.44,592.84z M399.44,564.12
				c-0.95,0-1.72-0.77-1.72-1.72V550.9c0-0.95,0.77-1.72,1.72-1.72c0.95,0,1.72,0.77,1.72,1.72v11.49
				C401.17,563.35,400.4,564.12,399.44,564.12z M399.44,535.39c-0.95,0-1.72-0.77-1.72-1.72v-11.49c0-0.95,0.77-1.72,1.72-1.72
				c0.95,0,1.72,0.77,1.72,1.72v11.49C401.17,534.62,400.4,535.39,399.44,535.39z M399.44,506.66c-0.95,0-1.72-0.77-1.72-1.72
				v-11.49c0-0.95,0.77-1.72,1.72-1.72c0.95,0,1.72,0.77,1.72,1.72v11.49C401.17,505.89,400.4,506.66,399.44,506.66z M399.44,477.93
				c-0.95,0-1.72-0.77-1.72-1.72v-11.49c0-0.95,0.77-1.72,1.72-1.72c0.95,0,1.72,0.77,1.72,1.72v11.49
				C401.17,477.16,400.4,477.93,399.44,477.93z M399.44,449.21c-0.95,0-1.72-0.77-1.72-1.72v-11.49c0-0.95,0.77-1.72,1.72-1.72
				c0.95,0,1.72,0.77,1.72,1.72v11.49C401.17,448.43,400.4,449.21,399.44,449.21z M399.44,420.48c-0.95,0-1.72-0.77-1.72-1.72
				v-11.49c0-0.95,0.77-1.72,1.72-1.72c0.95,0,1.72,0.77,1.72,1.72v11.49C401.17,419.71,400.4,420.48,399.44,420.48z M399.44,391.75
				c-0.95,0-1.72-0.77-1.72-1.72v-11.49c0-0.95,0.77-1.72,1.72-1.72c0.95,0,1.72,0.77,1.72,1.72v11.49
				C401.17,390.98,400.4,391.75,399.44,391.75z M399.44,363.02c-0.95,0-1.72-0.77-1.72-1.72v-11.49c0-0.95,0.77-1.72,1.72-1.72
				c0.95,0,1.72,0.77,1.72,1.72v11.49C401.17,362.25,400.4,363.02,399.44,363.02z M399.45,334.29c-0.01,0-0.03,0-0.04,0
				c-0.95-0.02-1.71-0.81-1.69-1.76c0.09-4.03,0.74-7.99,1.96-11.78c0.29-0.91,1.26-1.41,2.17-1.11c0.91,0.29,1.41,1.26,1.12,2.17
				c-1.11,3.47-1.72,7.11-1.79,10.8C401.16,333.55,400.39,334.29,399.45,334.29z M410.03,308.29c-0.43,0-0.86-0.16-1.19-0.48
				c-0.69-0.66-0.71-1.75-0.06-2.44c2.8-2.94,6.01-5.39,9.53-7.27c0.84-0.45,1.88-0.13,2.33,0.71c0.45,0.84,0.13,1.88-0.71,2.33
				c-3.2,1.71-6.11,3.93-8.66,6.61C410.94,308.11,410.48,308.29,410.03,308.29z M1596.29,297.3h-11.49c-0.95,0-1.72-0.77-1.72-1.72
				c0-0.95,0.77-1.72,1.72-1.72h11.49c0.95,0,1.72,0.77,1.72,1.72C1598.01,296.53,1597.24,297.3,1596.29,297.3z M1567.56,297.3
				h-11.49c-0.95,0-1.72-0.77-1.72-1.72c0-0.95,0.77-1.72,1.72-1.72h11.49c0.95,0,1.72,0.77,1.72,1.72
				C1569.29,296.53,1568.51,297.3,1567.56,297.3z M1538.83,297.3h-11.49c-0.95,0-1.72-0.77-1.72-1.72c0-0.95,0.77-1.72,1.72-1.72
				h11.49c0.95,0,1.72,0.77,1.72,1.72C1540.56,296.53,1539.79,297.3,1538.83,297.3z M1510.11,297.3h-11.49
				c-0.95,0-1.72-0.77-1.72-1.72c0-0.95,0.77-1.72,1.72-1.72h11.49c0.95,0,1.72,0.77,1.72,1.72
				C1511.83,296.53,1511.06,297.3,1510.11,297.3z M1481.38,297.3h-11.49c-0.95,0-1.72-0.77-1.72-1.72c0-0.95,0.77-1.72,1.72-1.72
				h11.49c0.95,0,1.72,0.77,1.72,1.72C1483.1,296.53,1482.33,297.3,1481.38,297.3z M1452.65,297.3h-11.49
				c-0.95,0-1.72-0.77-1.72-1.72c0-0.95,0.77-1.72,1.72-1.72h11.49c0.95,0,1.72,0.77,1.72,1.72
				C1454.38,296.53,1453.6,297.3,1452.65,297.3z M1423.92,297.3h-11.49c-0.95,0-1.72-0.77-1.72-1.72c0-0.95,0.77-1.72,1.72-1.72
				h11.49c0.95,0,1.72,0.77,1.72,1.72C1425.65,296.53,1424.88,297.3,1423.92,297.3z M1395.2,297.3h-11.49
				c-0.95,0-1.72-0.77-1.72-1.72c0-0.95,0.77-1.72,1.72-1.72h11.49c0.95,0,1.72,0.77,1.72,1.72
				C1396.92,296.53,1396.15,297.3,1395.2,297.3z M1366.47,297.3h-11.49c-0.95,0-1.72-0.77-1.72-1.72c0-0.95,0.77-1.72,1.72-1.72
				h11.49c0.95,0,1.72,0.77,1.72,1.72C1368.19,296.53,1367.42,297.3,1366.47,297.3z M1337.74,297.3h-11.49
				c-0.95,0-1.72-0.77-1.72-1.72c0-0.95,0.77-1.72,1.72-1.72h11.49c0.95,0,1.72,0.77,1.72,1.72
				C1339.46,296.53,1338.69,297.3,1337.74,297.3z M1309.01,297.3h-11.49c-0.95,0-1.72-0.77-1.72-1.72c0-0.95,0.77-1.72,1.72-1.72
				h11.49c0.95,0,1.72,0.77,1.72,1.72C1310.74,296.53,1309.96,297.3,1309.01,297.3z M1280.29,297.3h-11.49
				c-0.95,0-1.72-0.77-1.72-1.72c0-0.95,0.77-1.72,1.72-1.72h11.49c0.95,0,1.72,0.77,1.72,1.72
				C1282.01,296.53,1281.24,297.3,1280.29,297.3z M1251.56,297.3h-11.49c-0.95,0-1.72-0.77-1.72-1.72c0-0.95,0.77-1.72,1.72-1.72
				h11.49c0.95,0,1.72,0.77,1.72,1.72C1253.28,296.53,1252.51,297.3,1251.56,297.3z M1222.83,297.3h-11.49
				c-0.95,0-1.72-0.77-1.72-1.72c0-0.95,0.77-1.72,1.72-1.72h11.49c0.95,0,1.72,0.77,1.72,1.72
				C1224.55,296.53,1223.78,297.3,1222.83,297.3z M1194.1,297.3h-11.49c-0.95,0-1.72-0.77-1.72-1.72c0-0.95,0.77-1.72,1.72-1.72
				h11.49c0.95,0,1.72,0.77,1.72,1.72C1195.83,296.53,1195.05,297.3,1194.1,297.3z M1165.37,297.3h-11.49
				c-0.95,0-1.72-0.77-1.72-1.72c0-0.95,0.77-1.72,1.72-1.72h11.49c0.95,0,1.72,0.77,1.72,1.72
				C1167.1,296.53,1166.33,297.3,1165.37,297.3z M1136.65,297.3h-11.49c-0.95,0-1.72-0.77-1.72-1.72c0-0.95,0.77-1.72,1.72-1.72
				h11.49c0.95,0,1.72,0.77,1.72,1.72C1138.37,296.53,1137.6,297.3,1136.65,297.3z M1107.92,297.3h-11.49
				c-0.95,0-1.72-0.77-1.72-1.72c0-0.95,0.77-1.72,1.72-1.72h11.49c0.95,0,1.72,0.77,1.72,1.72
				C1109.64,296.53,1108.87,297.3,1107.92,297.3z M1079.19,297.3h-11.49c-0.95,0-1.72-0.77-1.72-1.72c0-0.95,0.77-1.72,1.72-1.72
				h11.49c0.95,0,1.72,0.77,1.72,1.72C1080.91,296.53,1080.14,297.3,1079.19,297.3z M1050.46,297.3h-11.49
				c-0.95,0-1.72-0.77-1.72-1.72c0-0.95,0.77-1.72,1.72-1.72h11.49c0.95,0,1.72,0.77,1.72,1.72
				C1052.19,296.53,1051.42,297.3,1050.46,297.3z M1021.73,297.3h-11.49c-0.95,0-1.72-0.77-1.72-1.72c0-0.95,0.77-1.72,1.72-1.72
				h11.49c0.95,0,1.72,0.77,1.72,1.72C1023.46,296.53,1022.69,297.3,1021.73,297.3z M993.01,297.3h-11.49
				c-0.95,0-1.72-0.77-1.72-1.72c0-0.95,0.77-1.72,1.72-1.72h11.49c0.95,0,1.72,0.77,1.72,1.72
				C994.73,296.53,993.96,297.3,993.01,297.3z M964.28,297.3h-11.49c-0.95,0-1.72-0.77-1.72-1.72c0-0.95,0.77-1.72,1.72-1.72h11.49
				c0.95,0,1.72,0.77,1.72,1.72C966,296.53,965.23,297.3,964.28,297.3z M935.55,297.3h-11.49c-0.95,0-1.72-0.77-1.72-1.72
				c0-0.95,0.77-1.72,1.72-1.72h11.49c0.95,0,1.72,0.77,1.72,1.72C937.27,296.53,936.5,297.3,935.55,297.3z M906.82,297.3h-11.49
				c-0.95,0-1.72-0.77-1.72-1.72c0-0.95,0.77-1.72,1.72-1.72h11.49c0.95,0,1.72,0.77,1.72,1.72
				C908.55,296.53,907.78,297.3,906.82,297.3z M878.1,297.3H866.6c-0.95,0-1.72-0.77-1.72-1.72c0-0.95,0.77-1.72,1.72-1.72h11.49
				c0.95,0,1.72,0.77,1.72,1.72C879.82,296.53,879.05,297.3,878.1,297.3z M849.37,297.3h-11.49c-0.95,0-1.72-0.77-1.72-1.72
				c0-0.95,0.77-1.72,1.72-1.72h11.49c0.95,0,1.72,0.77,1.72,1.72C851.09,296.53,850.32,297.3,849.37,297.3z M820.64,297.3h-11.49
				c-0.95,0-1.72-0.77-1.72-1.72c0-0.95,0.77-1.72,1.72-1.72h11.49c0.95,0,1.72,0.77,1.72,1.72
				C822.36,296.53,821.59,297.3,820.64,297.3z M791.91,297.3h-11.49c-0.95,0-1.72-0.77-1.72-1.72c0-0.95,0.77-1.72,1.72-1.72h11.49
				c0.95,0,1.72,0.77,1.72,1.72C793.64,296.53,792.86,297.3,791.91,297.3z M763.18,297.3h-11.49c-0.95,0-1.72-0.77-1.72-1.72
				c0-0.95,0.77-1.72,1.72-1.72h11.49c0.95,0,1.72,0.77,1.72,1.72C764.91,296.53,764.14,297.3,763.18,297.3z M734.46,297.3h-11.49
				c-0.95,0-1.72-0.77-1.72-1.72c0-0.95,0.77-1.72,1.72-1.72h11.49c0.95,0,1.72,0.77,1.72,1.72
				C736.18,296.53,735.41,297.3,734.46,297.3z M705.73,297.3h-11.49c-0.95,0-1.72-0.77-1.72-1.72c0-0.95,0.77-1.72,1.72-1.72h11.49
				c0.95,0,1.72,0.77,1.72,1.72C707.45,296.53,706.68,297.3,705.73,297.3z M677,297.3h-11.49c-0.95,0-1.72-0.77-1.72-1.72
				c0-0.95,0.77-1.72,1.72-1.72H677c0.95,0,1.72,0.77,1.72,1.72C678.72,296.53,677.95,297.3,677,297.3z M648.27,297.3h-11.49
				c-0.95,0-1.72-0.77-1.72-1.72c0-0.95,0.77-1.72,1.72-1.72h11.49c0.95,0,1.72,0.77,1.72,1.72
				C650,296.53,649.23,297.3,648.27,297.3z M619.54,297.3h-11.49c-0.95,0-1.72-0.77-1.72-1.72c0-0.95,0.77-1.72,1.72-1.72h11.49
				c0.95,0,1.72,0.77,1.72,1.72C621.27,296.53,620.5,297.3,619.54,297.3z M590.82,297.3h-11.49c-0.95,0-1.72-0.77-1.72-1.72
				c0-0.95,0.77-1.72,1.72-1.72h11.49c0.95,0,1.72,0.77,1.72,1.72C592.54,296.53,591.77,297.3,590.82,297.3z M562.09,297.3H550.6
				c-0.95,0-1.72-0.77-1.72-1.72c0-0.95,0.77-1.72,1.72-1.72h11.49c0.95,0,1.72,0.77,1.72,1.72
				C563.81,296.53,563.04,297.3,562.09,297.3z M533.36,297.3h-11.49c-0.95,0-1.72-0.77-1.72-1.72c0-0.95,0.77-1.72,1.72-1.72h11.49
				c0.95,0,1.72,0.77,1.72,1.72C535.09,296.53,534.31,297.3,533.36,297.3z M504.63,297.3h-11.49c-0.95,0-1.72-0.77-1.72-1.72
				c0-0.95,0.77-1.72,1.72-1.72h11.49c0.95,0,1.72,0.77,1.72,1.72C506.36,296.53,505.59,297.3,504.63,297.3z M475.91,297.3h-11.49
				c-0.95,0-1.72-0.77-1.72-1.72c0-0.95,0.77-1.72,1.72-1.72h11.49c0.95,0,1.72,0.77,1.72,1.72
				C477.63,296.53,476.86,297.3,475.91,297.3z M447.18,297.3h-11.49c-0.95,0-1.72-0.77-1.72-1.72c0-0.95,0.77-1.72,1.72-1.72h11.49
				c0.95,0,1.72,0.77,1.72,1.72C448.9,296.53,448.13,297.3,447.18,297.3z"/>
		</g>
		<g class="st5">
			
				<linearGradient id="SVGID_00000050655667495214983730000016828325749703830949_" gradientUnits="userSpaceOnUse" x1="727.0697" y1="612.412" x2="1254.3363" y2="612.412">
				<stop  offset="0" style="stop-color:#C1C0FF"/>
				<stop  offset="1" style="stop-color:#D7D5FF"/>
			</linearGradient>
			
				<rect x="727.07" y="185.08" style="fill:url(#SVGID_00000050655667495214983730000016828325749703830949_);" width="527.27" height="854.66"/>
			
				<linearGradient id="SVGID_00000058550454143998347440000017530742781923198131_" gradientUnits="userSpaceOnUse" x1="828.364" y1="438.8431" x2="1153.042" y2="438.8431">
				<stop  offset="0" style="stop-color:#D9D5FF"/>
				<stop  offset="1" style="stop-color:#F9F9FF"/>
			</linearGradient>
			<circle style="fill:url(#SVGID_00000058550454143998347440000017530742781923198131_);" cx="990.7" cy="438.84" r="162.34"/>
			<g>
				<rect x="859.03" y="647.02" class="st4" width="263.34" height="19.68"/>
				<rect x="897.76" y="680.53" class="st4" width="185.88" height="19.68"/>
				<rect x="813.3" y="737.03" class="st4" width="354.81" height="9.84"/>
				<rect x="813.3" y="760.01" class="st4" width="354.81" height="9.84"/>
				<rect x="813.3" y="782.99" class="st4" width="354.81" height="9.84"/>
				<rect x="851.6" y="805.98" class="st4" width="278.21" height="9.84"/>
			</g>
			
				<linearGradient id="SVGID_00000074424712605128106700000014713148335694882208_" gradientUnits="userSpaceOnUse" x1="813.2966" y1="896.5729" x2="1168.1093" y2="896.5729">
				<stop  offset="0" style="stop-color:#FE5294"/>
				<stop  offset="1" style="stop-color:#B94287"/>
			</linearGradient>
			<path style="fill:url(#SVGID_00000074424712605128106700000014713148335694882208_);" d="M1140.82,923.86H840.59
				c-15.07,0-27.29-12.22-27.29-27.29v0c0-15.07,12.22-27.29,27.29-27.29h300.23c15.07,0,27.29,12.22,27.29,27.29v0
				C1168.11,911.65,1155.89,923.86,1140.82,923.86z"/>
			<path class="st4" d="M984.24,977.97c0-3.57,2.89-6.46,6.46-6.46s6.46,2.89,6.46,6.46c0,3.57-2.89,6.46-6.46,6.46
				S984.24,981.54,984.24,977.97z"/>
			
				<linearGradient id="SVGID_00000056387587730051060850000012404956664518677419_" gradientUnits="userSpaceOnUse" x1="1013.4458" y1="977.9683" x2="1026.3734" y2="977.9683">
				<stop  offset="0" style="stop-color:#FE5294"/>
				<stop  offset="1" style="stop-color:#B94287"/>
			</linearGradient>
			<path style="fill:url(#SVGID_00000056387587730051060850000012404956664518677419_);" d="M1013.45,977.97
				c0-3.57,2.89-6.46,6.46-6.46c3.57,0,6.46,2.89,6.46,6.46c0,3.57-2.89,6.46-6.46,6.46
				C1016.34,984.43,1013.45,981.54,1013.45,977.97z"/>
			<path class="st4" d="M955.03,977.97c0-3.57,2.89-6.46,6.46-6.46s6.46,2.89,6.46,6.46c0,3.57-2.89,6.46-6.46,6.46
				S955.03,981.54,955.03,977.97z"/>
			<g>
				
					<linearGradient id="SVGID_00000110436730716185554940000016383473764167781803_" gradientUnits="userSpaceOnUse" x1="990.7029" y1="375.6419" x2="1117.1053" y2="375.6419">
					<stop  offset="0" style="stop-color:#53AAFC"/>
					<stop  offset="1" style="stop-color:#A2CCFF"/>
				</linearGradient>
				<path style="fill:url(#SVGID_00000110436730716185554940000016383473764167781803_);" d="M1022.39,438.84h94.72
					c0-69.81-56.59-126.4-126.4-126.4v94.72C1008.2,407.16,1022.39,421.34,1022.39,438.84z"/>
				
					<linearGradient id="SVGID_00000119825240535998660740000006617891608095607434_" gradientUnits="userSpaceOnUse" x1="864.3007" y1="438.8431" x2="1045.0194" y2="438.8431">
					<stop  offset="0" style="stop-color:#FE5294"/>
					<stop  offset="1" style="stop-color:#B94287"/>
				</linearGradient>
				<path style="fill:url(#SVGID_00000119825240535998660740000006617891608095607434_);" d="M990.7,470.53
					c-17.5,0-31.69-14.19-31.69-31.69c0-17.5,14.19-31.69,31.69-31.69v-94.72c-69.81,0-126.4,56.59-126.4,126.4
					s56.59,126.4,126.4,126.4c19.45,0,37.86-4.4,54.32-12.25l-40.72-85.57C1000.18,469.39,995.58,470.53,990.7,470.53z"/>
				
					<linearGradient id="SVGID_00000154424522020907129390000016891348048902791064_" gradientUnits="userSpaceOnUse" x1="1004.3038" y1="495.9214" x2="1117.1053" y2="495.9214">
					<stop  offset="0" style="stop-color:#3F4B89"/>
					<stop  offset="1" style="stop-color:#594482"/>
				</linearGradient>
				<path style="fill:url(#SVGID_00000154424522020907129390000016891348048902791064_);" d="M1117.11,438.84h-94.72
					c0,12.62-7.4,23.49-18.08,28.59l40.72,85.57C1087.64,532.68,1117.11,489.21,1117.11,438.84z"/>
			</g>
		</g>
		<g>
			
				<linearGradient id="SVGID_00000178893207711572166780000015050503512230830767_" gradientUnits="userSpaceOnUse" x1="618.5922" y1="731.1461" x2="224.6448" y2="979.226">
				<stop  offset="0" style="stop-color:#3F4B89"/>
				<stop  offset="1" style="stop-color:#594482"/>
			</linearGradient>
			
				<rect x="163.61" y="717.72" style="opacity:0.49;fill:url(#SVGID_00000178893207711572166780000015050503512230830767_);" width="501.36" height="284.16"/>
			<g>
				
					<linearGradient id="SVGID_00000072252272784634134070000007416518647685312927_" gradientUnits="userSpaceOnUse" x1="268.7252" y1="899.8089" x2="219.1702" y2="931.0151">
					<stop  offset="0" style="stop-color:#FE5294"/>
					<stop  offset="1" style="stop-color:#B94287"/>
				</linearGradient>
				
					<rect x="234.43" y="861.69" style="fill:url(#SVGID_00000072252272784634134070000007416518647685312927_);" width="17.19" height="108.6"/>
				
					<linearGradient id="SVGID_00000060744466252813313860000011986521084401536437_" gradientUnits="userSpaceOnUse" x1="327.8479" y1="878.1703" x2="265.5473" y2="917.4027">
					<stop  offset="0" style="stop-color:#FE5294"/>
					<stop  offset="1" style="stop-color:#B94287"/>
				</linearGradient>
				
					<rect x="286.95" y="826.74" style="fill:url(#SVGID_00000060744466252813313860000011986521084401536437_);" width="17.19" height="143.55"/>
				
					<linearGradient id="SVGID_00000047022951315756416500000008924292907043362441_" gradientUnits="userSpaceOnUse" x1="393.8525" y1="834.0037" x2="305.5368" y2="889.6187">
					<stop  offset="0" style="stop-color:#FE5294"/>
					<stop  offset="1" style="stop-color:#B94287"/>
				</linearGradient>
				
					<rect x="339.46" y="755.4" style="fill:url(#SVGID_00000047022951315756416500000008924292907043362441_);" width="17.19" height="214.9"/>
				
					<linearGradient id="SVGID_00000070804555665529942770000014181544526264393617_" gradientUnits="userSpaceOnUse" x1="439.6646" y1="855.9388" x2="364.2691" y2="903.4174">
					<stop  offset="0" style="stop-color:#FE5294"/>
					<stop  offset="1" style="stop-color:#B94287"/>
				</linearGradient>
				
					<rect x="391.97" y="790.83" style="fill:url(#SVGID_00000070804555665529942770000014181544526264393617_);" width="17.19" height="179.46"/>
				
					<linearGradient id="SVGID_00000183229434224479003190000007488471846721303477_" gradientUnits="userSpaceOnUse" x1="508.7639" y1="801.6417" x2="401.3861" y2="869.2605">
					<stop  offset="0" style="stop-color:#FE5294"/>
					<stop  offset="1" style="stop-color:#B94287"/>
				</linearGradient>
				
					<rect x="444.48" y="703.13" style="fill:url(#SVGID_00000183229434224479003190000007488471846721303477_);" width="17.19" height="267.17"/>
				
					<linearGradient id="SVGID_00000085238920504214425220000005233242637014687934_" gradientUnits="userSpaceOnUse" x1="555.2423" y1="821.3951" x2="459.4999" y2="881.687">
					<stop  offset="0" style="stop-color:#FE5294"/>
					<stop  offset="1" style="stop-color:#B94287"/>
				</linearGradient>
				
					<rect x="497" y="735.03" style="fill:url(#SVGID_00000085238920504214425220000005233242637014687934_);" width="17.19" height="235.26"/>
				
					<linearGradient id="SVGID_00000000211150937336592670000003694712636878862250_" gradientUnits="userSpaceOnUse" x1="593.5809" y1="867.7955" x2="525.1694" y2="910.8763">
					<stop  offset="0" style="stop-color:#FE5294"/>
					<stop  offset="1" style="stop-color:#B94287"/>
				</linearGradient>
				
					<rect x="549.51" y="809.98" style="fill:url(#SVGID_00000000211150937336592670000003694712636878862250_);" width="17.19" height="160.31"/>
				
					<linearGradient id="SVGID_00000062170819789358315350000002371992335649900724_" gradientUnits="userSpaceOnUse" x1="636.6714" y1="898.6401" x2="586.428" y2="930.2798">
					<stop  offset="0" style="stop-color:#FE5294"/>
					<stop  offset="1" style="stop-color:#B94287"/>
				</linearGradient>
				
					<rect x="602.02" y="859.8" style="fill:url(#SVGID_00000062170819789358315350000002371992335649900724_);" width="17.19" height="110.49"/>
			</g>
		</g>
		<g>
			<rect x="1410.02" y="437.05" class="st22" width="415.24" height="74.74"/>
			<rect x="1410.02" y="561.09" class="st22" width="415.24" height="74.74"/>
			<rect x="1410.02" y="685.13" class="st22" width="415.24" height="74.74"/>
			<rect x="1309.74" y="437.05" class="st23" width="100.28" height="74.84"/>
			
				<linearGradient id="SVGID_00000066510445715498281420000011069499863827707311_" gradientUnits="userSpaceOnUse" x1="1309.7397" y1="598.4589" x2="1410.0162" y2="598.4589">
				<stop  offset="0" style="stop-color:#53AAFC"/>
				<stop  offset="1" style="stop-color:#A2CCFF"/>
			</linearGradient>
			
				<rect x="1309.74" y="561.04" style="fill:url(#SVGID_00000066510445715498281420000011069499863827707311_);" width="100.28" height="74.84"/>
			
				<linearGradient id="SVGID_00000003788097978690691060000012055655301572008887_" gradientUnits="userSpaceOnUse" x1="1309.7397" y1="722.4438" x2="1410.0162" y2="722.4438">
				<stop  offset="0" style="stop-color:#3F4B89"/>
				<stop  offset="1" style="stop-color:#594482"/>
			</linearGradient>
			
				<rect x="1309.74" y="685.02" style="opacity:0.49;fill:url(#SVGID_00000003788097978690691060000012055655301572008887_);" width="100.28" height="74.84"/>
			
				<linearGradient id="SVGID_00000030460535247639126340000010404681603458953869_" gradientUnits="userSpaceOnUse" x1="1432.6327" y1="463.2909" x2="1670.1753" y2="463.2909">
				<stop  offset="0" style="stop-color:#D9D5FF"/>
				<stop  offset="1" style="stop-color:#F9F9FF"/>
			</linearGradient>
			
				<rect x="1432.63" y="458.52" style="fill:url(#SVGID_00000030460535247639126340000010404681603458953869_);" width="237.54" height="9.54"/>
			
				<linearGradient id="SVGID_00000117656482582437201700000004153804313767158969_" gradientUnits="userSpaceOnUse" x1="1432.6327" y1="485.5538" x2="1551.4041" y2="485.5538">
				<stop  offset="0" style="stop-color:#D9D5FF"/>
				<stop  offset="1" style="stop-color:#F9F9FF"/>
			</linearGradient>
			
				<rect x="1432.63" y="480.78" style="fill:url(#SVGID_00000117656482582437201700000004153804313767158969_);" width="118.77" height="9.54"/>
			
				<linearGradient id="SVGID_00000152265309584054349190000012273422855576600965_" gradientUnits="userSpaceOnUse" x1="1433.9891" y1="587.3273" x2="1671.5319" y2="587.3273">
				<stop  offset="0" style="stop-color:#D9D5FF"/>
				<stop  offset="1" style="stop-color:#F9F9FF"/>
			</linearGradient>
			
				<rect x="1433.99" y="582.56" style="fill:url(#SVGID_00000152265309584054349190000012273422855576600965_);" width="237.54" height="9.54"/>
			
				<linearGradient id="SVGID_00000068639914168531294690000017810146268580339338_" gradientUnits="userSpaceOnUse" x1="1433.9891" y1="609.5903" x2="1552.7604" y2="609.5903">
				<stop  offset="0" style="stop-color:#D9D5FF"/>
				<stop  offset="1" style="stop-color:#F9F9FF"/>
			</linearGradient>
			
				<rect x="1433.99" y="604.82" style="fill:url(#SVGID_00000068639914168531294690000017810146268580339338_);" width="118.77" height="9.54"/>
			
				<linearGradient id="SVGID_00000124160344262949892890000015119243567594941367_" gradientUnits="userSpaceOnUse" x1="1433.9891" y1="711.364" x2="1671.5319" y2="711.364">
				<stop  offset="0" style="stop-color:#D9D5FF"/>
				<stop  offset="1" style="stop-color:#F9F9FF"/>
			</linearGradient>
			
				<rect x="1433.99" y="706.59" style="fill:url(#SVGID_00000124160344262949892890000015119243567594941367_);" width="237.54" height="9.54"/>
			
				<linearGradient id="SVGID_00000034800930247678379210000002416281756026111378_" gradientUnits="userSpaceOnUse" x1="1433.9891" y1="733.6269" x2="1552.7604" y2="733.6269">
				<stop  offset="0" style="stop-color:#D9D5FF"/>
				<stop  offset="1" style="stop-color:#F9F9FF"/>
			</linearGradient>
			
				<rect x="1433.99" y="728.86" style="fill:url(#SVGID_00000034800930247678379210000002416281756026111378_);" width="118.77" height="9.54"/>
		</g>
		<g>
			
				<linearGradient id="SVGID_00000044863957353172135400000004449183010634808248_" gradientUnits="userSpaceOnUse" x1="1342.4746" y1="909.9377" x2="1673.6108" y2="909.9377">
				<stop  offset="0" style="stop-color:#C1C0FF"/>
				<stop  offset="1" style="stop-color:#D7D5FF"/>
			</linearGradient>
			
				<rect x="1342.47" y="835.87" style="opacity:0.83;fill:url(#SVGID_00000044863957353172135400000004449183010634808248_);" width="331.14" height="148.14"/>
			
				<linearGradient id="SVGID_00000084506792069242982190000004902450856809749387_" gradientUnits="userSpaceOnUse" x1="1456.6584" y1="909.9377" x2="1580.8766" y2="909.9377">
				<stop  offset="0" style="stop-color:#5D2594"/>
				<stop  offset="1" style="stop-color:#5351E1"/>
			</linearGradient>
			<path style="fill:url(#SVGID_00000084506792069242982190000004902450856809749387_);" d="M1498.24,892.57l23.95,13.83
				c2.73,1.57,2.73,5.51,0,7.08l-23.95,13.83c-2.73,1.57-6.13-0.39-6.13-3.54v-27.66C1492.11,892.96,1495.52,890.99,1498.24,892.57z
				"/>
		</g>
		<g class="st34">
			<g>
				<rect x="465.7" y="418.25" class="st4" width="82.14" height="82.14"/>
				<rect x="574.49" y="418.25" class="st4" width="82.14" height="82.14"/>
			</g>
			<g>
				<rect x="465.7" y="526.26" class="st4" width="190.93" height="7.88"/>
				<rect x="465.7" y="576.7" class="st4" width="190.93" height="7.88"/>
				<rect x="465.7" y="594.51" class="st4" width="38.04" height="7.88"/>
				<rect x="509.07" y="594.51" class="st4" width="147.56" height="7.88"/>
				<rect x="465.7" y="612.03" class="st4" width="55.25" height="7.88"/>
				<rect x="526.46" y="612.03" class="st4" width="55.25" height="7.88"/>
				<rect x="586.35" y="612.03" class="st4" width="7.06" height="7.88"/>
				<rect x="465.7" y="545.34" class="st4" width="69.3" height="7.88"/>
				<rect x="540.05" y="545.34" class="st4" width="69.3" height="7.88"/>
			</g>
		</g>
	</g>
</g>
</svg>
