<?xml version="1.0" encoding="utf-8"?>
<!-- Generator: Adobe Illustrator 26.0.1, SVG Export Plug-In . SVG Version: 6.00 Build 0)  -->
<svg version="1.1" id="Ñëîé_1" xmlns="http://www.w3.org/2000/svg" xmlns:xlink="http://www.w3.org/1999/xlink" x="0px" y="0px"
	 viewBox="0 0 1566.24 1608" style="enable-background:new 0 0 1566.24 1608;" xml:space="preserve">
<style type="text/css">
	.st0{opacity:0.26;fill:#5C49CC;}
	.st1{opacity:0.6;fill:#F0588D;}
	.st2{opacity:0.09;fill:#F0588D;}
	.st3{fill:#170C2A;}
	.st4{fill:url(#SVGID_1_);}
	.st5{fill:#5C49CC;}
	.st6{fill:url(#SVGID_00000016037770723077278050000005816257037121444236_);}
	.st7{fill:#C2B9FA;}
	.st8{fill:url(#SVGID_00000037672029751870261820000017440144628179215768_);}
	.st9{fill:#BEBBF8;}
	.st10{fill:#FFFFFF;}
	.st11{opacity:0.22;fill:#5C49CC;}
	.st12{fill:url(#SVGID_00000124139415972185848960000012981271337368611987_);}
	.st13{fill:url(#SVGID_00000132046287456418869120000007636942663883396501_);}
	.st14{fill:url(#SVGID_00000145031755716917480460000012563062269708989861_);}
	.st15{fill:url(#SVGID_00000063613995031411231050000003698726323650397085_);}
	.st16{fill:url(#SVGID_00000050644840658928048330000005737542120684176281_);}
	.st17{opacity:0.85;}
	.st18{fill:url(#SVGID_00000008138726791025628280000015356787027488793482_);}
	.st19{fill:#F0588D;}
	.st20{fill:#F1F2F2;}
	.st21{fill:#C0BAF9;}
	.st22{opacity:0.22;fill:url(#SVGID_00000096744118012680389340000011780980749907331714_);}
	.st23{opacity:0.5;fill:#FFFFFF;}
	.st24{fill:#A7A5F9;}
	.st25{fill:url(#SVGID_00000025420917426923568530000004829299167041194926_);}
	.st26{fill:url(#SVGID_00000036930525451673608210000002911439307596494464_);}
	.st27{fill:url(#SVGID_00000024697936869198944980000007270231805307881900_);}
	.st28{fill:url(#SVGID_00000156554882593018594420000000269834461419716238_);}
	.st29{fill:url(#SVGID_00000108987796006902112030000009297661027683631241_);}
	.st30{fill:url(#SVGID_00000032607188334086845050000009697208086341335936_);}
	.st31{opacity:0.43;}
	.st32{fill:#1D1BA4;}
	.st33{fill:url(#SVGID_00000152948320245657235090000008880248115364463271_);}
</style>
<g>
	<g>
		<rect x="385.03" y="1073.24" class="st0" width="177.98" height="258.7"/>
		<rect x="365.87" y="1053.05" class="st0" width="177.98" height="258.7"/>
		<rect x="765.3" y="228.43" class="st0" width="422.04" height="302.59"/>
		<path class="st1" d="M1549.3,790.56c-3.28-17.03-9.97-32.85-19.35-46.71l9.26-13.34l-29.88-29.88L1496,709.9
			c-13.85-9.38-29.67-16.07-46.71-19.35l-2.72-16.94h-42.58l-2.72,16.94c-17.03,3.28-32.85,9.97-46.71,19.35l-13.34-9.26
			l-29.88,29.88l9.26,13.34c-9.38,13.85-16.07,29.67-19.35,46.71l-16.94,2.72v42.58l16.94,2.72c3.28,17.03,9.97,32.85,19.35,46.71
			l-9.26,13.34l29.88,29.88l13.34-9.26c13.85,9.38,29.67,16.07,46.71,19.35l2.72,16.94h42.58l2.72-16.94
			c17.03-3.28,32.85-9.97,46.71-19.35l13.34,9.26l29.88-29.88l-9.26-13.34c9.38-13.85,16.07-29.67,19.35-46.71l16.94-2.72v-42.58
			L1549.3,790.56z M1425.28,866.21c-28.52,0-51.64-23.12-51.64-51.64s23.12-51.64,51.64-51.64c28.52,0,51.64,23.12,51.64,51.64
			S1453.8,866.21,1425.28,866.21z"/>
		<path class="st2" d="M414.68,457.91c-2.58-13.39-7.84-25.83-15.21-36.72l7.28-10.49l-23.49-23.49l-10.49,7.28
			c-10.89-7.37-23.33-12.63-36.72-15.21l-2.14-13.32h-33.47l-2.14,13.32c-13.39,2.58-25.83,7.84-36.72,15.21l-10.49-7.28
			l-23.49,23.49l7.28,10.49c-7.37,10.89-12.63,23.33-15.21,36.72l-13.32,2.14v33.47l13.32,2.14c2.58,13.39,7.84,25.83,15.21,36.72
			l-7.28,10.49l23.49,23.49l10.49-7.28c10.89,7.37,23.33,12.63,36.72,15.21l2.14,13.32h33.47l2.14-13.32
			c13.39-2.58,25.83-7.84,36.72-15.21l10.49,7.28l23.49-23.49l-7.28-10.49c7.37-10.89,12.63-23.33,15.21-36.72l13.32-2.14v-33.47
			L414.68,457.91z M317.18,517.38c-22.42,0-40.6-18.18-40.6-40.6c0-22.42,18.18-40.6,40.6-40.6s40.6,18.18,40.6,40.6
			C357.78,499.21,339.6,517.38,317.18,517.38z"/>
		<path class="st2" d="M1335.6,414.5c-1.68-8.72-5.11-16.82-9.91-23.92l4.74-6.83l-15.3-15.3l-6.83,4.74
			c-7.09-4.8-15.19-8.23-23.92-9.91l-1.39-8.67h-21.8l-1.39,8.67c-8.72,1.68-16.82,5.11-23.92,9.91l-6.83-4.74l-15.3,15.3l4.74,6.83
			c-4.8,7.09-8.23,15.19-9.91,23.92l-8.67,1.39v21.8l8.67,1.39c1.68,8.72,5.11,16.82,9.91,23.92l-4.74,6.83l15.3,15.3l6.83-4.74
			c7.09,4.8,15.19,8.23,23.92,9.91l1.39,8.67h21.8l1.39-8.67c8.72-1.68,16.82-5.11,23.92-9.91l6.83,4.74l15.3-15.3l-4.74-6.83
			c4.8-7.09,8.23-15.19,9.91-23.92l8.67-1.39v-21.8L1335.6,414.5z M1272.09,453.24c-14.6,0-26.44-11.84-26.44-26.44
			s11.84-26.44,26.44-26.44c14.6,0,26.44,11.84,26.44,26.44S1286.7,453.24,1272.09,453.24z"/>
		<g>
			<g>
				<path class="st3" d="M1384.25,1114.94V500.6c0-16.02-12.99-29.01-29.01-29.01H210.94c-16.02,0-29.01,12.99-29.01,29.01v614.34
					H1384.25z"/>
				<linearGradient id="SVGID_1_" gradientUnits="userSpaceOnUse" x1="181.9278" y1="1160.4497" x2="1384.2461" y2="1160.4497">
					<stop  offset="0" style="stop-color:#D9D5FF"/>
					<stop  offset="1" style="stop-color:#F9F9FF"/>
				</linearGradient>
				<path class="st4" d="M181.93,1111.98v67.94c0,16.02,12.99,29.01,29.01,29.01h1144.3c16.02,0,29.01-12.99,29.01-29.01v-67.94
					H181.93z"/>
				<rect x="206.37" y="495.44" class="st5" width="1153.43" height="616.54"/>
				
					<linearGradient id="SVGID_00000154384716452798283260000013139415268082902942_" gradientUnits="userSpaceOnUse" x1="783.087" y1="1233.1346" x2="783.087" y2="1387.7842">
					<stop  offset="0" style="stop-color:#D9D5FF"/>
					<stop  offset="1" style="stop-color:#F9F9FF"/>
				</linearGradient>
				<path style="fill:url(#SVGID_00000154384716452798283260000013139415268082902942_);" d="M931.98,1362.35L931.98,1362.35H634.2
					l0,0c13.97-10.24,22.22-26.53,22.22-43.86v-109.57h253.33v109.57C909.75,1335.81,918.01,1352.1,931.98,1362.35z"/>
				<rect x="656.42" y="1208.92" class="st7" width="253.33" height="33.42"/>
				
					<linearGradient id="SVGID_00000176766255094234222700000007155399676105985159_" gradientUnits="userSpaceOnUse" x1="783.087" y1="1348.6902" x2="783.087" y2="1733.9229">
					<stop  offset="0" style="stop-color:#D9D5FF"/>
					<stop  offset="1" style="stop-color:#F9F9FF"/>
				</linearGradient>
				<path style="fill:url(#SVGID_00000176766255094234222700000007155399676105985159_);" d="M977.9,1387.53H588.27v0
					c0-13.91,11.28-25.18,25.18-25.18h339.26C966.63,1362.35,977.9,1373.62,977.9,1387.53L977.9,1387.53z"/>
				<circle class="st9" cx="783.09" cy="1160.45" r="17.78"/>
			</g>
			<g>
				<path class="st10" d="M1425.28,1087.49c-1.61,0-2.91-1.3-2.91-2.91v-11.65c0-1.61,1.3-2.91,2.91-2.91s2.91,1.3,2.91,2.91v11.65
					C1428.19,1086.18,1426.89,1087.49,1425.28,1087.49z M1425.28,1052.52c-1.61,0-2.91-1.3-2.91-2.91v-11.65
					c0-1.61,1.3-2.91,2.91-2.91s2.91,1.3,2.91,2.91v11.65C1428.19,1051.22,1426.89,1052.52,1425.28,1052.52z M1425.28,1017.56
					c-1.61,0-2.91-1.3-2.91-2.91v-11.65c0-1.61,1.3-2.91,2.91-2.91s2.91,1.3,2.91,2.91v11.65
					C1428.19,1016.26,1426.89,1017.56,1425.28,1017.56z M1425.28,982.6c-1.61,0-2.91-1.3-2.91-2.91v-11.65
					c0-1.61,1.3-2.91,2.91-2.91s2.91,1.3,2.91,2.91v11.65C1428.19,981.29,1426.89,982.6,1425.28,982.6z M1425.28,947.63
					c-1.61,0-2.91-1.3-2.91-2.91v-11.65c0-1.61,1.3-2.91,2.91-2.91s2.91,1.3,2.91,2.91v11.65
					C1428.19,946.33,1426.89,947.63,1425.28,947.63z M1425.28,912.67c-1.61,0-2.91-1.3-2.91-2.91V898.1c0-1.61,1.3-2.91,2.91-2.91
					s2.91,1.3,2.91,2.91v11.65C1428.19,911.37,1426.89,912.67,1425.28,912.67z M1425.28,877.71c-1.61,0-2.91-1.3-2.91-2.91v-11.65
					c0-1.61,1.3-2.91,2.91-2.91s2.91,1.3,2.91,2.91v11.65C1428.19,876.4,1426.89,877.71,1425.28,877.71z M1425.28,842.74
					c-1.61,0-2.91-1.3-2.91-2.91v-11.65c0-1.61,1.3-2.91,2.91-2.91s2.91,1.3,2.91,2.91v11.65
					C1428.19,841.44,1426.89,842.74,1425.28,842.74z M1425.28,807.78c-1.61,0-2.91-1.3-2.91-2.91v-11.65c0-1.61,1.3-2.91,2.91-2.91
					s2.91,1.3,2.91,2.91v11.65C1428.19,806.48,1426.89,807.78,1425.28,807.78z M1425.28,772.82c-1.61,0-2.91-1.3-2.91-2.91v-11.65
					c0-1.61,1.3-2.91,2.91-2.91s2.91,1.3,2.91,2.91v11.65C1428.19,771.51,1426.89,772.82,1425.28,772.82z M1425.28,737.86
					c-1.61,0-2.91-1.3-2.91-2.91v-11.65c0-1.61,1.3-2.91,2.91-2.91s2.91,1.3,2.91,2.91v11.65
					C1428.19,736.55,1426.89,737.86,1425.28,737.86z M1425.28,702.89c-1.61,0-2.91-1.3-2.91-2.91v-11.65c0-1.61,1.3-2.91,2.91-2.91
					s2.91,1.3,2.91,2.91v11.65C1428.19,701.59,1426.89,702.89,1425.28,702.89z M1425.28,667.93c-1.61,0-2.91-1.3-2.91-2.91v-11.65
					c0-1.61,1.3-2.91,2.91-2.91s2.91,1.3,2.91,2.91v11.65C1428.19,666.62,1426.89,667.93,1425.28,667.93z M1425.28,632.97
					c-1.61,0-2.91-1.3-2.91-2.91V618.4c0-1.61,1.3-2.91,2.91-2.91s2.91,1.3,2.91,2.91v11.65
					C1428.19,631.66,1426.89,632.97,1425.28,632.97z M1425.28,598c-1.61,0-2.91-1.3-2.91-2.91v-11.65c0-1.61,1.3-2.91,2.91-2.91
					s2.91,1.3,2.91,2.91v11.65C1428.19,596.7,1426.89,598,1425.28,598z M1425.28,563.04c-1.61,0-2.91-1.3-2.91-2.91v-11.65
					c0-1.61,1.3-2.91,2.91-2.91s2.91,1.3,2.91,2.91v11.65C1428.19,561.73,1426.89,563.04,1425.28,563.04z M1425.28,528.08
					c-1.61,0-2.91-1.3-2.91-2.91v-11.65c0-1.61,1.3-2.91,2.91-2.91s2.91,1.3,2.91,2.91v11.65
					C1428.19,526.77,1426.89,528.08,1425.28,528.08z M1425.28,493.11c-1.61,0-2.91-1.3-2.91-2.91v-11.65c0-1.61,1.3-2.91,2.91-2.91
					s2.91,1.3,2.91,2.91v11.65C1428.19,491.81,1426.89,493.11,1425.28,493.11z M1424.97,458.17c-1.43,0-2.68-1.06-2.88-2.52
					c-0.48-3.53-1.58-6.91-3.26-10.05c-0.76-1.42-0.22-3.18,1.19-3.94c1.42-0.76,3.19-0.23,3.94,1.19
					c2.01,3.75,3.32,7.79,3.89,12.01c0.22,1.59-0.9,3.06-2.49,3.28C1425.24,458.16,1425.1,458.17,1424.97,458.17z M1404.34,431.97
					c-0.35,0-0.71-0.06-1.06-0.2c-3.3-1.29-6.79-1.99-10.36-2.06c-1.61-0.03-2.89-1.36-2.86-2.97c0.03-1.59,1.33-2.86,2.91-2.86
					c0.02,0,0.04,0,0.06,0c4.27,0.08,8.43,0.91,12.37,2.46c1.5,0.59,2.24,2.28,1.65,3.78
					C1406.61,431.27,1405.51,431.97,1404.34,431.97z M1369.67,429.71h-11.65c-1.61,0-2.91-1.3-2.91-2.91c0-1.61,1.3-2.91,2.91-2.91
					h11.65c1.61,0,2.91,1.3,2.91,2.91C1372.58,428.4,1371.28,429.71,1369.67,429.71z M1334.71,429.71h-11.65
					c-1.61,0-2.91-1.3-2.91-2.91c0-1.61,1.3-2.91,2.91-2.91h11.65c1.61,0,2.91,1.3,2.91,2.91
					C1337.62,428.4,1336.32,429.71,1334.71,429.71z M1299.74,429.71h-11.65c-1.61,0-2.91-1.3-2.91-2.91c0-1.61,1.3-2.91,2.91-2.91
					h11.65c1.61,0,2.91,1.3,2.91,2.91C1302.66,428.4,1301.35,429.71,1299.74,429.71z M1264.78,429.71h-11.65
					c-1.61,0-2.91-1.3-2.91-2.91c0-1.61,1.3-2.91,2.91-2.91h11.65c1.61,0,2.91,1.3,2.91,2.91
					C1267.69,428.4,1266.39,429.71,1264.78,429.71z M1229.82,429.71h-11.65c-1.61,0-2.91-1.3-2.91-2.91c0-1.61,1.3-2.91,2.91-2.91
					h11.65c1.61,0,2.91,1.3,2.91,2.91C1232.73,428.4,1231.43,429.71,1229.82,429.71z M1194.85,429.71h-11.65
					c-1.61,0-2.91-1.3-2.91-2.91c0-1.61,1.3-2.91,2.91-2.91h11.65c1.61,0,2.91,1.3,2.91,2.91
					C1197.77,428.4,1196.46,429.71,1194.85,429.71z M1159.89,429.71h-11.65c-1.61,0-2.91-1.3-2.91-2.91c0-1.61,1.3-2.91,2.91-2.91
					h11.65c1.61,0,2.91,1.3,2.91,2.91C1162.8,428.4,1161.5,429.71,1159.89,429.71z M1124.93,429.71h-11.65
					c-1.61,0-2.91-1.3-2.91-2.91c0-1.61,1.3-2.91,2.91-2.91h11.65c1.61,0,2.91,1.3,2.91,2.91
					C1127.84,428.4,1126.54,429.71,1124.93,429.71z M1089.96,429.71h-11.65c-1.61,0-2.91-1.3-2.91-2.91c0-1.61,1.3-2.91,2.91-2.91
					h11.65c1.61,0,2.91,1.3,2.91,2.91C1092.88,428.4,1091.57,429.71,1089.96,429.71z M1055,429.71h-11.65
					c-1.61,0-2.91-1.3-2.91-2.91c0-1.61,1.3-2.91,2.91-2.91H1055c1.61,0,2.91,1.3,2.91,2.91
					C1057.91,428.4,1056.61,429.71,1055,429.71z M1020.04,429.71h-11.65c-1.61,0-2.91-1.3-2.91-2.91c0-1.61,1.3-2.91,2.91-2.91
					h11.65c1.61,0,2.91,1.3,2.91,2.91C1022.95,428.4,1021.65,429.71,1020.04,429.71z M985.07,429.71h-11.65
					c-1.61,0-2.91-1.3-2.91-2.91c0-1.61,1.3-2.91,2.91-2.91h11.65c1.61,0,2.91,1.3,2.91,2.91
					C987.99,428.4,986.68,429.71,985.07,429.71z M950.11,429.71h-11.65c-1.61,0-2.91-1.3-2.91-2.91c0-1.61,1.3-2.91,2.91-2.91h11.65
					c1.61,0,2.91,1.3,2.91,2.91C953.02,428.4,951.72,429.71,950.11,429.71z M915.15,429.71h-11.65c-1.61,0-2.91-1.3-2.91-2.91
					c0-1.61,1.3-2.91,2.91-2.91h11.65c1.61,0,2.91,1.3,2.91,2.91C918.06,428.4,916.76,429.71,915.15,429.71z M880.18,429.71h-11.65
					c-1.61,0-2.91-1.3-2.91-2.91c0-1.61,1.3-2.91,2.91-2.91h11.65c1.61,0,2.91,1.3,2.91,2.91
					C883.1,428.4,881.79,429.71,880.18,429.71z M845.22,429.71h-11.65c-1.61,0-2.91-1.3-2.91-2.91c0-1.61,1.3-2.91,2.91-2.91h11.65
					c1.61,0,2.91,1.3,2.91,2.91C848.14,428.4,846.83,429.71,845.22,429.71z M810.26,429.71H798.6c-1.61,0-2.91-1.3-2.91-2.91
					c0-1.61,1.3-2.91,2.91-2.91h11.65c1.61,0,2.91,1.3,2.91,2.91C813.17,428.4,811.87,429.71,810.26,429.71z M775.3,429.71h-11.65
					c-1.61,0-2.91-1.3-2.91-2.91c0-1.61,1.3-2.91,2.91-2.91h11.65c1.61,0,2.91,1.3,2.91,2.91
					C778.21,428.4,776.9,429.71,775.3,429.71z M740.33,429.71h-11.65c-1.61,0-2.91-1.3-2.91-2.91c0-1.61,1.3-2.91,2.91-2.91h11.65
					c1.61,0,2.91,1.3,2.91,2.91C743.25,428.4,741.94,429.71,740.33,429.71z M705.37,429.71h-11.65c-1.61,0-2.91-1.3-2.91-2.91
					c0-1.61,1.3-2.91,2.91-2.91h11.65c1.61,0,2.91,1.3,2.91,2.91C708.28,428.4,706.98,429.71,705.37,429.71z M670.41,429.71h-11.65
					c-1.61,0-2.91-1.3-2.91-2.91c0-1.61,1.3-2.91,2.91-2.91h11.65c1.61,0,2.91,1.3,2.91,2.91
					C673.32,428.4,672.01,429.71,670.41,429.71z M635.44,429.71h-11.65c-1.61,0-2.91-1.3-2.91-2.91c0-1.61,1.3-2.91,2.91-2.91h11.65
					c1.61,0,2.91,1.3,2.91,2.91C638.36,428.4,637.05,429.71,635.44,429.71z M600.48,429.71h-11.65c-1.61,0-2.91-1.3-2.91-2.91
					c0-1.61,1.3-2.91,2.91-2.91h11.65c1.61,0,2.91,1.3,2.91,2.91C603.39,428.4,602.09,429.71,600.48,429.71z M565.52,429.71h-11.65
					c-1.61,0-2.91-1.3-2.91-2.91c0-1.61,1.3-2.91,2.91-2.91h11.65c1.61,0,2.91,1.3,2.91,2.91
					C568.43,428.4,567.13,429.71,565.52,429.71z M530.55,429.71H518.9c-1.61,0-2.91-1.3-2.91-2.91c0-1.61,1.3-2.91,2.91-2.91h11.65
					c1.61,0,2.91,1.3,2.91,2.91C533.47,428.4,532.16,429.71,530.55,429.71z M495.59,429.71h-11.65c-1.61,0-2.91-1.3-2.91-2.91
					c0-1.61,1.3-2.91,2.91-2.91h11.65c1.61,0,2.91,1.3,2.91,2.91C498.5,428.4,497.2,429.71,495.59,429.71z M460.63,429.71h-11.65
					c-1.61,0-2.91-1.3-2.91-2.91c0-1.61,1.3-2.91,2.91-2.91h11.65c1.61,0,2.91,1.3,2.91,2.91
					C463.54,428.4,462.24,429.71,460.63,429.71z M425.66,429.71h-11.65c-1.61,0-2.91-1.3-2.91-2.91c0-1.61,1.3-2.91,2.91-2.91h11.65
					c1.61,0,2.91,1.3,2.91,2.91C428.58,428.4,427.27,429.71,425.66,429.71z M390.7,429.71h-11.65c-1.61,0-2.91-1.3-2.91-2.91
					c0-1.61,1.3-2.91,2.91-2.91h11.65c1.61,0,2.91,1.3,2.91,2.91C393.61,428.4,392.31,429.71,390.7,429.71z M355.74,429.71h-11.65
					c-1.61,0-2.91-1.3-2.91-2.91c0-1.61,1.3-2.91,2.91-2.91h11.65c1.61,0,2.91,1.3,2.91,2.91
					C358.65,428.4,357.35,429.71,355.74,429.71z M320.77,429.71h-11.65c-1.61,0-2.91-1.3-2.91-2.91c0-1.61,1.3-2.91,2.91-2.91h11.65
					c1.61,0,2.91,1.3,2.91,2.91C323.69,428.4,322.38,429.71,320.77,429.71z"/>
			</g>
			<polygon class="st11" points="206.37,1111.98 1359.8,1111.98 1359.8,495.44 206.37,1111.98 			"/>
		</g>
		
			<linearGradient id="SVGID_00000088830791579243689170000017224303118300511657_" gradientUnits="userSpaceOnUse" x1="824" y1="643.0509" x2="1047.101" y2="643.0509">
			<stop  offset="0" style="stop-color:#C1C0FF"/>
			<stop  offset="1" style="stop-color:#D7D5FF"/>
		</linearGradient>
		
			<rect x="824" y="591.76" style="fill:url(#SVGID_00000088830791579243689170000017224303118300511657_);" width="223.1" height="102.57"/>
		
			<linearGradient id="SVGID_00000004539277933634964440000016459257537437612461_" gradientUnits="userSpaceOnUse" x1="1062.459" y1="643.0509" x2="1285.5598" y2="643.0509">
			<stop  offset="0" style="stop-color:#C1C0FF"/>
			<stop  offset="1" style="stop-color:#D7D5FF"/>
		</linearGradient>
		
			<rect x="1062.46" y="591.76" style="fill:url(#SVGID_00000004539277933634964440000016459257537437612461_);" width="223.1" height="102.57"/>
		
			<linearGradient id="SVGID_00000174586587019883473030000008437830510799095225_" gradientUnits="userSpaceOnUse" x1="8281.4941" y1="-2441.0227" x2="8331.0439" y2="-2441.0227" gradientTransform="matrix(0 1 -1 0 -1508.4716 -7663.2183)">
			<stop  offset="0" style="stop-color:#C1C0FF"/>
			<stop  offset="1" style="stop-color:#D7D5FF"/>
		</linearGradient>
		<path style="fill:url(#SVGID_00000174586587019883473030000008437830510799095225_);" d="M918.82,619.04l33.11,19.11
			c3.77,2.18,3.77,7.61,0,9.79l-33.11,19.11c-3.77,2.18-8.48-0.54-8.48-4.9v-38.23C910.35,619.59,915.06,616.87,918.82,619.04z"/>
		<g>
			
				<linearGradient id="SVGID_00000040549006662181919210000010805687682060809356_" gradientUnits="userSpaceOnUse" x1="1135.1394" y1="642.6215" x2="1148.9327" y2="642.6215">
				<stop  offset="0" style="stop-color:#C1C0FF"/>
				<stop  offset="1" style="stop-color:#D7D5FF"/>
			</linearGradient>
			<path style="fill:url(#SVGID_00000040549006662181919210000010805687682060809356_);" d="M1143.32,641.12
				c-0.44,0.7-1.14,1.2-2.11,1.51c0.97,0.3,1.67,0.8,2.11,1.51c0.43,0.7,0.65,1.74,0.65,3.11v10.98c0,2.61,1.24,3.91,3.71,3.91h1.25
				v3.96h-2.21c-2.5,0-4.4-0.63-5.66-1.88c-1.27-1.25-1.91-3.1-1.91-5.54v-11.53c0-1.67-0.76-2.51-2.26-2.51h-1.76v-4.01h1.76
				c1.5,0,2.26-0.84,2.26-2.51v-11.53c0-2.44,0.63-4.29,1.91-5.54c1.27-1.25,3.16-1.88,5.66-1.88h2.21v3.96h-1.25
				c-2.47,0-3.71,1.3-3.71,3.91v10.98C1143.97,639.38,1143.75,640.41,1143.32,641.12z"/>
			
				<linearGradient id="SVGID_00000111161851666154931930000014658719826553252506_" gradientUnits="userSpaceOnUse" x1="1196.8755" y1="642.6215" x2="1210.6168" y2="642.6215">
				<stop  offset="0" style="stop-color:#C1C0FF"/>
				<stop  offset="1" style="stop-color:#D7D5FF"/>
			</linearGradient>
			<path style="fill:url(#SVGID_00000111161851666154931930000014658719826553252506_);" d="M1210.62,640.62v4.01h-1.71
				c-1.47,0-2.2,0.84-2.2,2.51v11.53c0,2.44-0.65,4.29-1.93,5.54c-1.29,1.25-3.19,1.88-5.69,1.88h-2.21v-3.96h1.2
				c2.54,0,3.82-1.3,3.82-3.91v-10.98c0-1.4,0.21-2.45,0.62-3.13c0.42-0.68,1.11-1.18,2.08-1.48c-0.97-0.3-1.67-0.79-2.08-1.48
				c-0.42-0.68-0.62-1.73-0.62-3.13v-10.98c0-2.61-1.27-3.91-3.82-3.91h-1.2v-3.96h2.21c2.5,0,4.4,0.63,5.69,1.88
				c1.28,1.25,1.93,3.1,1.93,5.54v11.53c0,1.67,0.73,2.51,2.2,2.51H1210.62z"/>
		</g>
		<g class="st17">
			<g>
				
					<linearGradient id="SVGID_00000046337238722391095760000004615885492626016412_" gradientUnits="userSpaceOnUse" x1="824" y1="887.5624" x2="1285.5598" y2="887.5624">
					<stop  offset="0" style="stop-color:#D9D5FF"/>
					<stop  offset="1" style="stop-color:#F9F9FF"/>
				</linearGradient>
				
					<rect x="824" y="751.41" style="fill:url(#SVGID_00000046337238722391095760000004615885492626016412_);" width="461.56" height="272.3"/>
				<g>
					<path class="st19" d="M1274.37,727.05H835.19c-6.18,0-11.19,5.01-11.19,11.19v13.18h461.56v-13.18
						C1285.56,732.06,1280.55,727.05,1274.37,727.05z"/>
					<circle class="st20" cx="851.12" cy="739.86" r="4.39"/>
					<circle class="st20" cx="865.28" cy="739.86" r="4.39"/>
					<circle class="st20" cx="879.45" cy="739.86" r="4.39"/>
				</g>
			</g>
			<g>
				<rect x="854.26" y="783.97" class="st21" width="191.59" height="12.02"/>
				<rect x="854.26" y="811.56" class="st21" width="191.59" height="12.02"/>
				<rect x="1063.71" y="782.73" class="st21" width="191.59" height="95.98"/>
				<rect x="854.26" y="896.41" class="st21" width="191.59" height="95.98"/>
				<rect x="854.26" y="839.14" class="st21" width="191.59" height="12.02"/>
				<rect x="854.26" y="866.73" class="st21" width="191.59" height="12.02"/>
				<rect x="1063.71" y="897.01" class="st21" width="191.59" height="12.02"/>
				<rect x="1063.71" y="924.6" class="st21" width="191.59" height="12.02"/>
				<rect x="1063.71" y="952.18" class="st21" width="191.59" height="12.02"/>
				<rect x="1063.71" y="979.77" class="st21" width="191.59" height="12.02"/>
			</g>
		</g>
		
			<linearGradient id="SVGID_00000148650595862779205180000011420740803669189272_" gradientUnits="userSpaceOnUse" x1="1054.7799" y1="389.3589" x2="1054.7799" y2="298.3467">
			<stop  offset="0" style="stop-color:#D9D5FF"/>
			<stop  offset="1" style="stop-color:#F9F9FF"/>
		</linearGradient>
		
			<rect x="963.67" y="269.63" style="opacity:0.22;fill:url(#SVGID_00000148650595862779205180000011420740803669189272_);" width="182.22" height="121.94"/>
		<rect x="371.94" y="256.58" class="st23" width="226.76" height="26.11"/>
		<rect x="371.94" y="299.91" class="st23" width="226.76" height="26.11"/>
		<rect x="371.94" y="343.24" class="st23" width="226.76" height="26.11"/>
		<rect x="317.18" y="256.58" class="st19" width="54.76" height="26.15"/>
		<rect x="317.18" y="299.89" class="st5" width="54.76" height="26.15"/>
		<rect x="317.18" y="343.21" class="st24" width="54.76" height="26.15"/>
		
			<linearGradient id="SVGID_00000023245002374113440430000002351007390032138423_" gradientUnits="userSpaceOnUse" x1="384.294" y1="265.7427" x2="514.0162" y2="265.7427">
			<stop  offset="0" style="stop-color:#D9D5FF"/>
			<stop  offset="1" style="stop-color:#F9F9FF"/>
		</linearGradient>
		
			<rect x="384.29" y="264.08" style="fill:url(#SVGID_00000023245002374113440430000002351007390032138423_);" width="129.72" height="3.33"/>
		
			<linearGradient id="SVGID_00000129180259346749307780000018403147627301771178_" gradientUnits="userSpaceOnUse" x1="384.294" y1="273.5205" x2="449.1551" y2="273.5205">
			<stop  offset="0" style="stop-color:#D9D5FF"/>
			<stop  offset="1" style="stop-color:#F9F9FF"/>
		</linearGradient>
		
			<rect x="384.29" y="271.85" style="fill:url(#SVGID_00000129180259346749307780000018403147627301771178_);" width="64.86" height="3.33"/>
		
			<linearGradient id="SVGID_00000022521373221230590460000000804963725139984544_" gradientUnits="userSpaceOnUse" x1="385.0347" y1="309.0761" x2="514.7569" y2="309.0761">
			<stop  offset="0" style="stop-color:#D9D5FF"/>
			<stop  offset="1" style="stop-color:#F9F9FF"/>
		</linearGradient>
		
			<rect x="385.03" y="307.41" style="fill:url(#SVGID_00000022521373221230590460000000804963725139984544_);" width="129.72" height="3.33"/>
		
			<linearGradient id="SVGID_00000126307371107206890520000014097595539260978564_" gradientUnits="userSpaceOnUse" x1="385.0347" y1="316.8539" x2="449.8958" y2="316.8539">
			<stop  offset="0" style="stop-color:#D9D5FF"/>
			<stop  offset="1" style="stop-color:#F9F9FF"/>
		</linearGradient>
		
			<rect x="385.03" y="315.19" style="fill:url(#SVGID_00000126307371107206890520000014097595539260978564_);" width="64.86" height="3.33"/>
		
			<linearGradient id="SVGID_00000064333203465568961400000014971862178977623445_" gradientUnits="userSpaceOnUse" x1="385.0347" y1="352.4094" x2="514.7569" y2="352.4094">
			<stop  offset="0" style="stop-color:#D9D5FF"/>
			<stop  offset="1" style="stop-color:#F9F9FF"/>
		</linearGradient>
		
			<rect x="385.03" y="350.74" style="fill:url(#SVGID_00000064333203465568961400000014971862178977623445_);" width="129.72" height="3.33"/>
		
			<linearGradient id="SVGID_00000142156497856624049970000006317942309674413990_" gradientUnits="userSpaceOnUse" x1="385.0347" y1="360.1872" x2="449.8958" y2="360.1872">
			<stop  offset="0" style="stop-color:#D9D5FF"/>
			<stop  offset="1" style="stop-color:#F9F9FF"/>
		</linearGradient>
		
			<rect x="385.03" y="358.52" style="fill:url(#SVGID_00000142156497856624049970000006317942309674413990_);" width="64.86" height="3.33"/>
		
			<ellipse transform="matrix(0.1784 -0.984 0.984 0.1784 522.3182 1243.7443)" class="st21" cx="1005.94" cy="309.1" rx="26.69" ry="26.69"/>
		<g>
			<path class="st23" d="M1177.12,206.15H775.53c-5.65,0-10.23,4.58-10.23,10.23v12.05h422.04v-12.05
				C1187.35,210.73,1182.77,206.15,1177.12,206.15z"/>
			<path class="st21" d="M794.11,217.86c0,2.22-1.8,4.02-4.02,4.02c-2.22,0-4.02-1.8-4.02-4.02c0-2.22,1.8-4.02,4.02-4.02
				C792.32,213.85,794.11,215.65,794.11,217.86z"/>
			<path class="st21" d="M807.07,217.86c0,2.22-1.8,4.02-4.02,4.02c-2.22,0-4.02-1.8-4.02-4.02c0-2.22,1.8-4.02,4.02-4.02
				C805.27,213.85,807.07,215.65,807.07,217.86z"/>
			<path class="st21" d="M820.02,217.86c0,2.22-1.8,4.02-4.02,4.02s-4.02-1.8-4.02-4.02c0-2.22,1.8-4.02,4.02-4.02
				S820.02,215.65,820.02,217.86z"/>
		</g>
		<g class="st31">
			
				<ellipse transform="matrix(0.9871 -0.1602 0.1602 0.9871 -34.5678 164.9677)" class="st10" cx="1005.94" cy="296.89" rx="8.08" ry="8.08"/>
			<path class="st10" d="M1005.94,306.28L1005.94,306.28c-8.42,0-15.24,6.82-15.24,15.24v1.03h30.48v-1.03
				C1021.18,313.1,1014.36,306.28,1005.94,306.28z"/>
		</g>
		<g>
			<rect x="658.83" y="379.72" class="st32" width="12.41" height="12.41"/>
			<rect x="677.53" y="379.72" class="st32" width="12.41" height="12.41"/>
			<rect x="696.24" y="379.72" class="st32" width="12.41" height="12.41"/>
		</g>
		<g>
			<rect x="190.66" y="1267.04" class="st19" width="12.41" height="12.41"/>
			<rect x="209.37" y="1267.04" class="st19" width="12.41" height="12.41"/>
			<rect x="228.07" y="1267.04" class="st19" width="12.41" height="12.41"/>
		</g>
		<g>
			<rect x="975.82" y="1254.63" class="st24" width="12.41" height="12.41"/>
			<rect x="994.53" y="1254.63" class="st24" width="12.41" height="12.41"/>
			<rect x="1013.23" y="1254.63" class="st24" width="12.41" height="12.41"/>
			<rect x="1031.93" y="1254.63" class="st24" width="12.41" height="12.41"/>
			<rect x="1050.64" y="1254.63" class="st24" width="12.41" height="12.41"/>
			<rect x="1069.34" y="1254.63" class="st24" width="12.41" height="12.41"/>
			<rect x="1089.62" y="1254.63" class="st24" width="264.4" height="12.41"/>
		</g>
		<rect x="786.08" y="269.63" class="st23" width="158.67" height="3.61"/>
		<rect x="786.08" y="310.74" class="st23" width="158.67" height="3.61"/>
		<rect x="786.08" y="318.15" class="st23" width="158.67" height="3.61"/>
		<rect x="786.08" y="325.56" class="st23" width="52.93" height="3.61"/>
		<rect x="786.08" y="277.04" class="st23" width="158.67" height="3.61"/>
		<rect x="786.08" y="284.45" class="st23" width="158.67" height="3.61"/>
		<rect x="786.08" y="291.85" class="st23" width="109.97" height="3.61"/>
		<rect x="786.08" y="341.95" class="st23" width="158.67" height="3.61"/>
		<rect x="786.08" y="349.35" class="st23" width="158.67" height="3.61"/>
		<rect x="786.08" y="356.76" class="st23" width="158.67" height="3.61"/>
		<rect x="786.08" y="364.17" class="st23" width="109.97" height="3.61"/>
		<g class="st17">
			
				<linearGradient id="SVGID_00000106147703785940121400000016798746547013948809_" gradientUnits="userSpaceOnUse" x1="40.6666" y1="825.6561" x2="712.0936" y2="825.6561">
				<stop  offset="0" style="stop-color:#D9D5FF"/>
				<stop  offset="1" style="stop-color:#F9F9FF"/>
			</linearGradient>
			
				<rect x="40.67" y="627.6" style="fill:url(#SVGID_00000106147703785940121400000016798746547013948809_);" width="671.43" height="396.11"/>
			<g>
				<path class="st19" d="M695.82,592.59H56.94c-8.99,0-16.27,7.29-16.27,16.27v19.17h671.43v-19.17
					C712.09,599.88,704.81,592.59,695.82,592.59z"/>
				<path class="st20" d="M86.5,611.23c0,3.53-2.86,6.39-6.39,6.39s-6.39-2.86-6.39-6.39s2.86-6.39,6.39-6.39
					S86.5,607.7,86.5,611.23z"/>
				<path class="st20" d="M107.1,611.23c0,3.53-2.86,6.39-6.39,6.39c-3.53,0-6.39-2.86-6.39-6.39s2.86-6.39,6.39-6.39
					C104.24,604.84,107.1,607.7,107.1,611.23z"/>
				<path class="st20" d="M127.71,611.23c0,3.53-2.86,6.39-6.39,6.39s-6.39-2.86-6.39-6.39s2.86-6.39,6.39-6.39
					S127.71,607.7,127.71,611.23z"/>
			</g>
			<rect x="75.67" y="671.86" class="st21" width="296.27" height="87.71"/>
			<g>
				<rect x="75.67" y="772.25" class="st21" width="139.9" height="9.55"/>
				<rect x="232.05" y="772.25" class="st21" width="139.9" height="9.55"/>
			</g>
			<g>
				<rect x="75.67" y="793.82" class="st21" width="139.9" height="9.55"/>
				<rect x="232.05" y="793.82" class="st21" width="139.9" height="9.55"/>
			</g>
			<g>
				<rect x="75.67" y="815.4" class="st21" width="139.9" height="9.55"/>
				<rect x="232.05" y="815.4" class="st21" width="139.9" height="9.55"/>
			</g>
			<g>
				<rect x="75.67" y="836.98" class="st21" width="139.9" height="9.55"/>
				<rect x="232.05" y="836.98" class="st21" width="139.9" height="9.55"/>
			</g>
			<g>
				<rect x="380.82" y="772.25" class="st21" width="139.9" height="9.55"/>
				<rect x="537.19" y="772.25" class="st21" width="139.9" height="9.55"/>
			</g>
			<g>
				<rect x="380.82" y="793.82" class="st21" width="139.9" height="9.55"/>
				<rect x="537.19" y="793.82" class="st21" width="139.9" height="9.55"/>
			</g>
			<g>
				<rect x="380.82" y="815.4" class="st21" width="139.9" height="9.55"/>
				<rect x="537.19" y="815.4" class="st21" width="139.9" height="9.55"/>
			</g>
			<g>
				<rect x="380.82" y="836.98" class="st21" width="139.9" height="9.55"/>
				<rect x="537.19" y="836.98" class="st21" width="139.9" height="9.55"/>
			</g>
			<g>
				<path class="st10" d="M155.74,711.31l-10.56,3.87l10.56,3.84v3.96l-15.09-5.74v-4.12l15.09-5.74V711.31z"/>
				<path class="st10" d="M168.6,725.19c-1.83-0.98-3.27-2.35-4.31-4.09c-1.05-1.74-1.57-3.72-1.57-5.91c0-2.2,0.52-4.17,1.57-5.91
					s2.48-3.11,4.31-4.09c1.83-0.98,3.88-1.47,6.17-1.47c1.92,0,3.66,0.34,5.22,1.01c1.55,0.68,2.86,1.65,3.92,2.92l-3.3,3.04
					c-1.5-1.73-3.36-2.6-5.58-2.6c-1.37,0-2.6,0.3-3.68,0.9c-1.08,0.6-1.92,1.44-2.52,2.52c-0.6,1.08-0.9,2.3-0.9,3.68
					c0,1.37,0.3,2.6,0.9,3.68c0.6,1.08,1.44,1.92,2.52,2.52c1.08,0.6,2.3,0.9,3.68,0.9c2.22,0,4.08-0.88,5.58-2.63l3.3,3.04
					c-1.06,1.29-2.37,2.27-3.93,2.95c-1.56,0.68-3.31,1.01-5.23,1.01C172.47,726.66,170.43,726.17,168.6,725.19z"/>
				<path class="st10" d="M195.2,725.17c-1.85-0.99-3.3-2.36-4.34-4.11c-1.05-1.74-1.57-3.7-1.57-5.88c0-2.18,0.52-4.14,1.57-5.88
					c1.05-1.74,2.49-3.11,4.34-4.11c1.85-0.99,3.93-1.49,6.23-1.49s4.38,0.5,6.22,1.49c1.84,0.99,3.29,2.36,4.34,4.11
					c1.06,1.74,1.59,3.71,1.59,5.88c0,2.18-0.53,4.14-1.59,5.88c-1.06,1.74-2.51,3.11-4.34,4.11c-1.84,0.99-3.91,1.49-6.22,1.49
					S197.05,726.16,195.2,725.17z M204.99,721.38c1.06-0.6,1.89-1.44,2.49-2.52c0.6-1.08,0.9-2.3,0.9-3.68c0-1.37-0.3-2.6-0.9-3.68
					c-0.6-1.08-1.43-1.92-2.49-2.52c-1.06-0.6-2.24-0.9-3.55-0.9c-1.31,0-2.49,0.3-3.55,0.9c-1.06,0.6-1.89,1.44-2.49,2.52
					c-0.6,1.08-0.9,2.3-0.9,3.68c0,1.37,0.3,2.6,0.9,3.68c0.6,1.08,1.43,1.92,2.49,2.52c1.06,0.6,2.24,0.9,3.55,0.9
					C202.75,722.28,203.93,721.98,204.99,721.38z"/>
				<path class="st10" d="M221.26,704.08h10.08c2.41,0,4.54,0.46,6.39,1.38c1.85,0.92,3.29,2.21,4.31,3.88
					c1.02,1.67,1.54,3.62,1.54,5.83c0,2.22-0.51,4.17-1.54,5.84c-1.03,1.67-2.46,2.96-4.31,3.88c-1.85,0.92-3.98,1.38-6.39,1.38
					h-10.08V704.08z M231.09,722.06c2.22,0,3.99-0.62,5.31-1.85c1.32-1.24,1.98-2.91,1.98-5.03c0-2.11-0.66-3.79-1.98-5.03
					c-1.32-1.24-3.09-1.86-5.31-1.86h-4.69v13.76H231.09z"/>
				<path class="st10" d="M268.44,722.16v4.12h-17.19v-22.2h16.78v4.12h-11.67v4.82h10.31v4h-10.31v5.14H268.44z"/>
				<path class="st10" d="M283.13,699.58h4.41l-10.47,29.87h-4.41L283.13,699.58z"/>
				<path class="st10" d="M307,713.12v4.12l-15.09,5.74v-3.96l10.56-3.84l-10.56-3.87v-3.93L307,713.12z"/>
			</g>
			<rect x="380.82" y="671.86" class="st19" width="296.27" height="87.71"/>
			<rect x="75.67" y="860.86" class="st19" width="296.27" height="87.71"/>
			<rect x="380.82" y="860.86" class="st21" width="296.27" height="87.71"/>
			<g>
				<path class="st10" d="M470.17,711.31l-10.56,3.87l10.56,3.84v3.96l-15.09-5.74v-4.12l15.09-5.74V711.31z"/>
				<path class="st10" d="M498.9,704.08v22.2h-5.14v-9.1h-10.08v9.1h-5.14v-22.2h5.14v8.75h10.08v-8.75H498.9z"/>
				<path class="st10" d="M512.57,708.27h-7.1v-4.19h19.34v4.19h-7.1v18.01h-5.14V708.27z"/>
				<path class="st10" d="M551.57,726.28l-0.03-13.32l-6.53,10.97h-2.32l-6.5-10.69v13.03h-4.82v-22.2h4.25l8.31,13.79l8.18-13.79
					h4.22l0.06,22.2H551.57z"/>
				<path class="st10" d="M565.46,704.08h5.14v18.01h11.13v4.19h-16.27V704.08z"/>
				<path class="st10" d="M602.85,713.12v4.12l-15.09,5.74v-3.96l10.56-3.84l-10.56-3.87v-3.93L602.85,713.12z"/>
			</g>
			<g>
				<path class="st10" d="M434.59,898.71l-10.56,3.87l10.56,3.84v3.96l-15.09-5.74v-4.12l15.09-5.74V898.71z"/>
				<path class="st10" d="M449.75,886.98h4.41l-10.47,29.87h-4.41L449.75,886.98z"/>
				<path class="st10" d="M479.56,891.48v22.2h-5.14v-9.1h-10.08v9.1h-5.14v-22.2h5.14v8.75h10.08v-8.75H479.56z"/>
				<path class="st10" d="M505.81,909.56v4.12h-17.19v-22.2h16.78v4.12h-11.67v4.82h10.31v4h-10.31v5.14H505.81z"/>
				<path class="st10" d="M528.33,908.93h-10.31l-1.97,4.76h-5.26l9.89-22.2h5.07l9.93,22.2h-5.39L528.33,908.93z M526.71,905.03
					l-3.52-8.5l-3.52,8.5H526.71z"/>
				<path class="st10" d="M541.81,891.48h10.08c2.41,0,4.54,0.46,6.39,1.38c1.85,0.92,3.29,2.21,4.31,3.88
					c1.02,1.67,1.54,3.62,1.54,5.83c0,2.22-0.51,4.17-1.54,5.83c-1.03,1.67-2.46,2.96-4.31,3.88c-1.85,0.92-3.98,1.38-6.39,1.38
					h-10.08V891.48z M551.64,909.46c2.22,0,3.99-0.62,5.31-1.85c1.32-1.24,1.98-2.91,1.98-5.03c0-2.11-0.66-3.79-1.98-5.03
					c-1.32-1.24-3.09-1.86-5.31-1.86h-4.69v13.76H551.64z"/>
				<path class="st10" d="M588.99,909.56v4.12H571.8v-22.2h16.78v4.12h-11.67v4.82h10.31v4h-10.31v5.14H588.99z"/>
				<path class="st10" d="M611.03,913.68l-4.28-6.18h-0.25h-4.47v6.18h-5.14v-22.2h9.61c1.97,0,3.67,0.33,5.12,0.98
					c1.45,0.66,2.56,1.58,3.35,2.79c0.78,1.21,1.17,2.63,1.17,4.28c0,1.65-0.4,3.07-1.19,4.27c-0.79,1.19-1.92,2.11-3.38,2.74
					l4.98,7.13H611.03z M609.73,896.67c-0.8-0.67-1.98-1-3.52-1h-4.19v7.74h4.19c1.54,0,2.72-0.34,3.52-1.01
					c0.8-0.68,1.21-1.63,1.21-2.85C610.94,898.29,610.54,897.33,609.73,896.67z"/>
				<path class="st10" d="M638.43,900.52v4.12l-15.09,5.74v-3.96l10.56-3.84l-10.56-3.87v-3.93L638.43,900.52z"/>
			</g>
			<g>
				<path class="st10" d="M163.51,898.71l-10.56,3.87l10.56,3.84v3.96l-15.09-5.74v-4.12l15.09-5.74V898.71z"/>
				<path class="st10" d="M191.16,904.15c0.72,0.94,1.08,2.1,1.08,3.47c0,1.95-0.76,3.44-2.27,4.49c-1.51,1.05-3.72,1.57-6.61,1.57
					h-11.48v-22.2h10.85c2.71,0,4.78,0.52,6.23,1.55c1.45,1.04,2.17,2.44,2.17,4.22c0,1.08-0.26,2.04-0.78,2.89
					c-0.52,0.85-1.24,1.51-2.17,2C189.45,902.54,190.44,903.21,191.16,904.15z M176.99,895.35v5.23h5.11c1.27,0,2.23-0.22,2.89-0.67
					c0.66-0.44,0.98-1.1,0.98-1.97c0-0.87-0.33-1.52-0.98-1.95c-0.66-0.43-1.62-0.65-2.89-0.65H176.99z M186.04,909.15
					c0.69-0.44,1.03-1.13,1.03-2.06c0-1.84-1.36-2.76-4.09-2.76h-5.99v5.49h5.99C184.33,909.81,185.35,909.59,186.04,909.15z"/>
				<path class="st10" d="M204.46,912.57c-1.85-0.99-3.3-2.36-4.34-4.11c-1.05-1.74-1.57-3.7-1.57-5.88c0-2.18,0.52-4.14,1.57-5.88
					c1.05-1.74,2.49-3.11,4.34-4.11c1.85-0.99,3.93-1.49,6.23-1.49s4.38,0.5,6.22,1.49c1.84,0.99,3.29,2.36,4.34,4.11
					c1.06,1.74,1.59,3.7,1.59,5.88c0,2.18-0.53,4.14-1.59,5.88c-1.06,1.74-2.51,3.11-4.34,4.11c-1.84,0.99-3.91,1.49-6.22,1.49
					S206.31,913.57,204.46,912.57z M214.25,908.78c1.06-0.6,1.89-1.44,2.49-2.52c0.6-1.08,0.9-2.3,0.9-3.68c0-1.37-0.3-2.6-0.9-3.68
					c-0.6-1.08-1.43-1.92-2.49-2.52c-1.06-0.6-2.24-0.9-3.55-0.9c-1.31,0-2.49,0.3-3.55,0.9c-1.06,0.6-1.89,1.44-2.49,2.52
					c-0.6,1.08-0.9,2.3-0.9,3.68c0,1.37,0.3,2.6,0.9,3.68c0.6,1.08,1.43,1.92,2.49,2.52c1.06,0.6,2.24,0.9,3.55,0.9
					C212.01,909.69,213.19,909.39,214.25,908.78z"/>
				<path class="st10" d="M230.52,891.48h10.08c2.41,0,4.54,0.46,6.39,1.38c1.85,0.92,3.29,2.21,4.31,3.88
					c1.02,1.67,1.54,3.62,1.54,5.83c0,2.22-0.51,4.17-1.54,5.83c-1.03,1.67-2.46,2.96-4.31,3.88c-1.85,0.92-3.98,1.38-6.39,1.38
					h-10.08V891.48z M240.35,909.46c2.22,0,3.99-0.62,5.31-1.85c1.32-1.24,1.98-2.91,1.98-5.03c0-2.11-0.66-3.79-1.98-5.03
					c-1.32-1.24-3.09-1.86-5.31-1.86h-4.69v13.76H240.35z"/>
				<path class="st10" d="M270.22,905.82v7.86h-5.14v-7.93l-8.59-14.27h5.45l5.93,9.86l5.93-9.86h5.04L270.22,905.82z"/>
				<path class="st10" d="M299.24,900.52v4.12l-15.09,5.74v-3.96l10.56-3.84l-10.56-3.87v-3.93L299.24,900.52z"/>
			</g>
		</g>
	</g>
</g>
</svg>
