<?xml version="1.0" encoding="utf-8"?>
<!-- Generator: Adobe Illustrator 25.4.1, SVG Export Plug-In . SVG Version: 6.00 Build 0)  -->
<svg version="1.1" xmlns="http://www.w3.org/2000/svg" xmlns:xlink="http://www.w3.org/1999/xlink" x="0px" y="0px"
	 viewBox="0 0 68.55 64.19" style="enable-background:new 0 0 68.55 64.19;" xml:space="preserve">
<style type="text/css">
	.st0{fill:none;stroke:#000000;stroke-width:2;stroke-linecap:round;stroke-linejoin:round;}
	.st1{fill:none;stroke:#FFFFFF;stroke-width:6;stroke-linecap:round;}
	.st2{fill:#FFFFFF;stroke:#000000;stroke-width:2;stroke-linecap:round;stroke-linejoin:round;}
</style>
<g id="background">
</g>
<g id="text">
</g>
<g id="icons">
	<g id="Group_107" transform="translate(-1355.907 -275.197)">
		<path id="Path_378" class="st0" d="M1362.21,295.67v8.73h16.06v-3.45"/>
		<line id="Line_12" class="st0" x1="1369.69" y1="337.79" x2="1369.69" y2="320.37"/>
		<line id="Line_13" class="st0" x1="1364.41" y1="320.37" x2="1364.41" y2="334.67"/>
		<path id="Path_387" class="st1" d="M1374.97,317.53"/>
		<line id="Line_15" class="st0" x1="1374.97" y1="334.67" x2="1374.97" y2="320.37"/>
		<path id="Path_379" class="st2" d="M1364.41,304.4v1.05c0,4.16-5.28,4.52-5.28,10.85l0,0"/>
		<path id="Path_380" class="st2" d="M1374.97,305.45c0,4.16,5.28,4.52,5.28,10.85l0,0"/>
		<path id="Path_388" class="st1" d="M1381.97,317.53"/>
		<line id="Line_24" class="st0" x1="1380.25" y1="330.6" x2="1380.25" y2="316.3"/>
		<path id="Path_389" class="st2" d="M1387.25,316.3"/>
		<line id="Line_25" class="st0" x1="1359.13" y1="316.3" x2="1359.13" y2="330.6"/>
	</g>
	<g id="Group_110" transform="translate(-1355.907 -275.197)">
		<path id="Path_378-2" class="st0" d="M1362.21,295.67v8.73h16.06v-3.45"/>
		<line id="Line_12-2" class="st0" x1="1369.69" y1="337.79" x2="1369.69" y2="320.37"/>
		<line id="Line_13-2" class="st0" x1="1364.41" y1="320.37" x2="1364.41" y2="334.67"/>
		<path id="Path_387-2" class="st1" d="M1374.97,317.53"/>
		<line id="Line_15-2" class="st0" x1="1374.97" y1="334.67" x2="1374.97" y2="320.37"/>
		<path id="Path_379-2" class="st2" d="M1364.41,304.4v1.05c0,4.16-5.28,4.52-5.28,10.85l0,0"/>
		<path id="Path_380-2" class="st2" d="M1374.97,305.45c0,4.16,5.28,4.52,5.28,10.85l0,0"/>
		<path id="Path_388-2" class="st1" d="M1381.97,317.53"/>
		<line id="Line_24-2" class="st0" x1="1380.25" y1="330.6" x2="1380.25" y2="316.3"/>
		<path id="Path_389-2" class="st2" d="M1387.25,316.3"/>
		<line id="Line_25-2" class="st0" x1="1359.13" y1="316.3" x2="1359.13" y2="330.6"/>
	</g>
	<g id="Group_111" transform="translate(338.32 -1355.421) rotate(90)">
		<path id="Path_378-3" class="st0" d="M1360.46,292.98v8.73h16.06v-3.45"/>
		<line id="Line_12-3" class="st0" x1="1367.94" y1="335.1" x2="1367.94" y2="317.68"/>
		<line id="Line_13-3" class="st0" x1="1362.66" y1="317.68" x2="1362.66" y2="331.98"/>
		<path id="Path_387-3" class="st1" d="M1373.22,314.85"/>
		<line id="Line_15-3" class="st0" x1="1373.22" y1="331.98" x2="1373.22" y2="317.68"/>
		<path id="Path_379-3" class="st2" d="M1362.66,301.71v1.05c0,4.16-5.28,4.52-5.28,10.85l0,0"/>
		<path id="Path_380-3" class="st2" d="M1373.22,302.76c0,4.16,5.28,4.52,5.28,10.85l0,0"/>
		<path id="Path_388-3" class="st1" d="M1380.22,314.85"/>
		<line id="Line_24-3" class="st0" x1="1378.5" y1="327.91" x2="1378.5" y2="313.61"/>
		<path id="Path_389-3" class="st2" d="M1385.5,313.61"/>
		<line id="Line_25-3" class="st0" x1="1357.38" y1="313.61" x2="1357.38" y2="327.91"/>
	</g>
	<g id="Group_112" transform="translate(-275.136 1419.031) rotate(-90)">
		<path id="Path_378-4" class="st0" d="M1359.52,297.42v8.73h16.06v-3.45"/>
		<line id="Line_12-4" class="st0" x1="1367" y1="339.54" x2="1367" y2="322.12"/>
		<line id="Line_13-4" class="st0" x1="1361.72" y1="322.12" x2="1361.72" y2="336.42"/>
		<path id="Path_387-4" class="st1" d="M1372.28,319.28"/>
		<line id="Line_15-4" class="st0" x1="1372.28" y1="336.42" x2="1372.28" y2="322.12"/>
		<path id="Path_379-4" class="st2" d="M1361.72,306.15v1.05c0,4.16-5.28,4.52-5.28,10.85l0,0"/>
		<path id="Path_380-4" class="st2" d="M1372.28,307.19c0,4.16,5.28,4.52,5.28,10.85l0,0"/>
		<path id="Path_388-4" class="st1" d="M1379.28,319.28"/>
		<line id="Line_24-4" class="st0" x1="1377.56" y1="332.35" x2="1377.56" y2="318.05"/>
		<path id="Path_389-4" class="st2" d="M1384.56,318.05"/>
		<line id="Line_25-4" class="st0" x1="1356.44" y1="318.05" x2="1356.44" y2="332.35"/>
	</g>
	<g id="Group_113" transform="translate(1420.03 338.32) rotate(180)">
		<path id="Path_378-5" class="st0" d="M1357.77,294.73v8.73h16.06v-3.45"/>
		<line id="Line_12-5" class="st0" x1="1365.25" y1="336.85" x2="1365.25" y2="319.43"/>
		<line id="Line_13-5" class="st0" x1="1359.97" y1="319.43" x2="1359.97" y2="333.73"/>
		<path id="Path_387-5" class="st1" d="M1370.53,316.59"/>
		<line id="Line_15-5" class="st0" x1="1370.53" y1="333.73" x2="1370.53" y2="319.43"/>
		<path id="Path_379-5" class="st2" d="M1359.97,303.46v1.05c0,4.16-5.28,4.52-5.28,10.85l0,0"/>
		<path id="Path_380-5" class="st2" d="M1370.53,304.51c0,4.16,5.28,4.52,5.28,10.85l0,0"/>
		<path id="Path_388-5" class="st1" d="M1377.53,316.59"/>
		<line id="Line_24-5" class="st0" x1="1375.81" y1="329.66" x2="1375.81" y2="315.36"/>
		<path id="Path_389-5" class="st2" d="M1382.81,315.36"/>
		<line id="Line_25-5" class="st0" x1="1354.69" y1="315.36" x2="1354.69" y2="329.66"/>
	</g>
</g>
</svg>
