<?xml version="1.0" encoding="utf-8"?>
<!-- Generator: Adobe Illustrator 25.4.1, SVG Export Plug-In . SVG Version: 6.00 Build 0)  -->
<svg version="1.1" id="Layer_1" xmlns="http://www.w3.org/2000/svg" xmlns:xlink="http://www.w3.org/1999/xlink" x="0px" y="0px"
	 viewBox="0 0 63.4 66.21" style="enable-background:new 0 0 63.4 66.21;" xml:space="preserve">
<style type="text/css">
	.st0{fill:none;stroke:#000000;stroke-width:2;stroke-linecap:round;stroke-linejoin:round;stroke-miterlimit:10;}
</style>
<g id="background">
</g>
<g id="icons">
	<g>
		<g>
			<g>
				<line class="st0" x1="14.82" y1="28.55" x2="8.78" y2="28.55"/>
				<line class="st0" x1="48.05" y1="28.56" x2="42.12" y2="28.56"/>
				<line class="st0" x1="18.77" y1="38.24" x2="14.55" y2="42.47"/>
				<line class="st0" x1="42.39" y1="14.62" x2="38.12" y2="18.9"/>
				<line class="st0" x1="28.47" y1="8.86" x2="28.47" y2="14.9"/>
				<line class="st0" x1="38.17" y1="38.24" x2="42.4" y2="42.47"/>
				<line class="st0" x1="14.55" y1="14.62" x2="18.83" y2="18.9"/>
				<line class="st0" x1="32.54" y1="45.81" x2="24.41" y2="45.81"/>
				<path class="st0" d="M24.41,42.15V41c0-4.93-5.47-6.2-5.47-12.45c0-5.27,4.27-9.54,9.54-9.54s9.54,4.27,9.54,9.54
					c0,6.25-5.47,7.53-5.47,12.45v1.14"/>
				<line class="st0" x1="30.55" y1="49.48" x2="26.39" y2="49.48"/>
			</g>
			<g>
				<g>
					<path class="st0" d="M10.92,64.43v-12.6c0-2.16-0.87-4.19-2.3-5.81c-4.68-5.3-7.28-12.48-6.47-20.29
						C3.41,13.51,13.27,3.57,25.48,2.23c15.97-1.75,29.48,10.7,29.48,26.31c0,0.56-0.02,1.11-0.06,1.65
						c-0.05,0.79,0.08,1.58,0.43,2.3l6.05,12.25c0.6,1.22-0.1,2.67-1.42,2.97l-3.79,0.83c-0.91,0.2-1.59,0.96-1.68,1.89l-0.87,8.89
						c-0.28,2.89-2.72,5.1-5.62,5.1H36.7c-4.54,0-8.22-3.68-8.22-8.22v-1.19"/>
				</g>
			</g>
		</g>
	</g>
</g>
</svg>
