<?xml version="1.0" encoding="utf-8"?>
<!-- Generator: Adobe Illustrator 25.4.1, SVG Export Plug-In . SVG Version: 6.00 Build 0)  -->
<svg version="1.1" id="Layer_1" xmlns="http://www.w3.org/2000/svg" xmlns:xlink="http://www.w3.org/1999/xlink" x="0px" y="0px"
	 viewBox="0 0 65.41 71.03" style="enable-background:new 0 0 65.41 71.03;" xml:space="preserve">
<style type="text/css">
	.st0{fill:#FFFFFF;}
	.st1{fill:none;stroke:#000000;stroke-width:2;stroke-linecap:round;stroke-linejoin:round;stroke-miterlimit:10;}
	.st2{fill:#FFFFFF;stroke:#FFFFFF;stroke-width:6.0002;stroke-linecap:round;stroke-linejoin:round;stroke-miterlimit:10.0003;}
	.st3{fill:none;stroke:#000000;stroke-width:2.0001;stroke-linecap:round;stroke-linejoin:round;stroke-miterlimit:10.0003;}
	.st4{fill:#FFFFFF;stroke:#FFFFFF;stroke-width:6;stroke-linecap:round;stroke-linejoin:round;stroke-miterlimit:10;}
</style>
<g id="background">
	<path class="st0" d="M-732.33,120.5"/>
	<path class="st0" d="M571.6,120.5"/>
</g>
<g id="icons">
	<g>
		<g>
			<polyline class="st1" points="53.69,56.01 12.42,32.18 53.69,8.36 			"/>
			<line class="st1" x1="53.69" y1="62.01" x2="12.42" y2="38.18"/>
			<line class="st1" x1="12.42" y1="38.18" x2="53.69" y2="14.36"/>
			<ellipse class="st2" cx="12.42" cy="35.18" rx="7.5" ry="7.5"/>
			<ellipse class="st3" cx="12.42" cy="35.18" rx="9.6" ry="9.6"/>
			<ellipse class="st4" cx="53.69" cy="59.01" rx="7.5" ry="7.5"/>
			<ellipse class="st1" cx="53.69" cy="59.01" rx="9.6" ry="9.6"/>
			<circle class="st4" cx="54.23" cy="11.36" r="7.5"/>
			<circle class="st1" cx="54.23" cy="11.36" r="9.6"/>
			<path class="st1" d="M17.53,35.18c0,2.82-2.29,5.1-5.1,5.1"/>
			<path class="st1" d="M58.8,59.01c0,2.82-2.28,5.1-5.1,5.1"/>
			<path class="st1" d="M59.33,11.36c0,2.82-2.29,5.1-5.1,5.1"/>
		</g>
	</g>
</g>
</svg>
