<?xml version="1.0" encoding="utf-8"?>
<!-- Generator: Adobe Illustrator 25.4.1, SVG Export Plug-In . SVG Version: 6.00 Build 0)  -->
<svg version="1.1" id="_x2014_ÎÓÈ_x5F_1" xmlns="http://www.w3.org/2000/svg" xmlns:xlink="http://www.w3.org/1999/xlink"
	 x="0px" y="0px" viewBox="0 0 841.5 681.75" style="enable-background:new 0 0 841.5 681.75;" xml:space="preserve">
<style type="text/css">
	.st0{fill:#F0F0F0;}
	.st1{fill:#FFFFFF;}
	.st2{fill:#3F3D56;}
	.st3{fill:#F4F4F4;}
	.st4{fill:#FFB6B6;}
	.st5{fill:#564BCF;}
	.st6{fill:#2F2E41;}
	.st7{fill:#6C63FF;}
	.st8{fill:#F0588D;}
	.st9{fill:#A7A5F9;}
	.st10{fill:#9F616A;}
	.st11{fill:#DA4D98;}
	.st12{fill:#CACACA;}
</style>
<g id="Group_101" transform="translate(0)">
	<path id="Path_330" class="st0" d="M450.07,94.95c27.92-19.59,67.22-27.1,97.97-11.82c-34.62,14.28-62.81,39.72-79.58,71.84
		c-6.42,12.41-12.2,26.84-25.44,32.58c-8.24,3.57-17.97,2.88-26.5,0s-16.12-7.78-23.61-12.62l-2.24-0.26
		C403.99,144.24,422.15,114.54,450.07,94.95z"/>
	<path id="Path_331" class="st1" d="M547.79,83.79c-28.5,0.78-56.1,10.17-79.17,26.94c-4.93,3.47-9.28,7.69-12.9,12.52
		c-3.31,4.72-5.24,10.27-5.57,16.02c-0.41,5.33-0.17,10.82-1.94,15.96c-1.99,5.38-6.19,9.65-11.54,11.74
		c-6.62,2.84-13.91,3.25-21.07,3.42c-7.94,0.19-16.19,0.26-23.41,3.81c-0.37,0.17-0.8,0.01-0.97-0.36
		c-0.16-0.35-0.02-0.77,0.32-0.95c12.56-6.18,27.24-2.15,40.45-5.82c6.16-1.72,11.82-5.2,14.29-11.04
		c2.16-5.11,1.93-10.77,2.29-16.17c0.23-5.61,1.89-11.07,4.83-15.86c3.35-4.99,7.52-9.36,12.35-12.94
		c10.88-8.36,22.99-15,35.88-19.7c14.84-5.5,30.47-8.54,46.29-9C548.91,82.32,548.77,83.76,547.79,83.79L547.79,83.79z"/>
	<path id="Path_332" class="st1" d="M475.62,104.95c-5.01-8.28-2.92-19,4.82-24.8c0.77-0.59,1.76,0.51,1,1.1
		c-7.22,5.39-9.14,15.4-4.43,23.08C477.5,105.14,476.12,105.76,475.62,104.95L475.62,104.95z"/>
	<path id="Path_333" class="st1" d="M450,136.54c9.57,2.54,19.74,1.57,28.66-2.74c0.37-0.17,0.8-0.01,0.97,0.36
		c0.16,0.35,0.02,0.77-0.32,0.95c-9.29,4.47-19.87,5.47-29.83,2.8C448.53,137.66,449.05,136.29,450,136.54L450,136.54z"/>
	<path id="Path_334" class="st1" d="M516.34,87.79c1.28,3.59,4.28,6.3,7.98,7.21c0.95,0.24,0.43,1.61-0.52,1.37
		c-4.08-1.03-7.39-4-8.85-7.96c-0.16-0.37,0-0.8,0.36-0.97C515.7,87.27,516.15,87.42,516.34,87.79L516.34,87.79z"/>
	<path id="Path_335" class="st0" d="M572.42,192.32c-0.6-0.14-1.2-0.27-1.81-0.4c-8.07-1.79-16.27-2.95-24.53-3.47
		c-0.64-0.05-1.28-0.09-1.92-0.12c-19.89-1.07-39.81,1.39-58.84,7.25c-7.53,2.33-14.88,5.21-21.98,8.61
		c-9.79,4.69-20.01,10.51-30.54,11.82c-1.1,0.15-2.2,0.23-3.31,0.25l-38.98-38.96c-0.04-0.13-0.09-0.25-0.14-0.39l-1.63-1.49
		c0.35-0.2,0.72-0.4,1.08-0.6c0.2-0.12,0.42-0.22,0.62-0.34c0.14-0.08,0.28-0.15,0.4-0.22c0.05-0.02,0.09-0.05,0.13-0.07
		c0.12-0.08,0.24-0.13,0.35-0.2c2.07-1.12,4.14-2.23,6.23-3.33c0.01-0.01,0.01-0.01,0.03-0.01c15.95-8.32,32.77-15.45,50.19-19.93
		c0.52-0.14,1.06-0.28,1.6-0.39c7.88-1.98,15.9-3.34,23.99-4.08c4.44-0.39,8.89-0.57,13.35-0.53c11.49,0.12,22.9,1.95,33.84,5.45
		c21.75,6.96,40.91,20.45,51.11,39.67C571.92,191.34,572.17,191.82,572.42,192.32z"/>
	<path id="Path_336" class="st1" d="M571.82,192.7c-23.76-15.82-51.74-24.11-80.29-23.76c-6.17-0.04-12.32,0.84-18.23,2.62
		c-5.62,1.87-10.66,5.19-14.6,9.61c-3.7,4.02-7,8.54-11.66,11.63c-4.94,3.15-10.95,4.15-16.65,2.77
		c-7.08-1.52-13.17-5.36-18.99-9.31c-6.46-4.39-13.09-9.05-21.11-10.34c-0.97-0.16-0.66-1.58,0.31-1.42
		c13.95,2.25,23.11,13.86,35.98,18.48c6.01,2.15,12.73,2.6,18.41-0.65c4.96-2.84,8.37-7.5,12.08-11.6c3.77-4.37,8.54-7.77,13.91-9.9
		c5.8-2.06,11.9-3.17,18.06-3.28c13.87-0.46,27.74,1.15,41.14,4.79c15.19,4.03,29.6,10.54,42.67,19.28
		C573.64,192.16,572.61,193.24,571.82,192.7L571.82,192.7z"/>
	<path id="Path_337" class="st1" d="M500.77,168.33c1.25-9.47,9.53-16.68,19.57-17.05c0.4-0.04,0.75,0.25,0.79,0.65
		c0.04,0.4-0.25,0.75-0.65,0.79c-0.01,0-0.03,0-0.04,0c-9.35,0.32-17.06,7.07-18.17,15.89
		C502.16,169.55,500.66,169.25,500.77,168.33L500.77,168.33z"/>
	<path id="Path_338" class="st1" d="M460.29,178.9c6.19,7.59,14.95,12.65,24.62,14.2c0.97,0.16,0.66,1.58-0.31,1.42
		c-10.06-1.63-19.17-6.91-25.59-14.82C458.41,178.95,459.69,178.16,460.29,178.9L460.29,178.9z"/>
	<path id="Path_339" class="st1" d="M544.17,177.91c-1.26,3.52-0.58,7.44,1.8,10.32c0.61,0.74-0.68,1.53-1.28,0.8
		c-2.62-3.2-3.38-7.52-2.02-11.42c0.11-0.39,0.5-0.63,0.9-0.56c0.4,0.07,0.66,0.45,0.6,0.85
		C544.17,177.9,544.17,177.9,544.17,177.91L544.17,177.91z"/>
	<path id="Path_340" class="st2" d="M442.7,124.09h-3.02v-78.6c0-25.12-21.44-45.49-47.9-45.49H216.46
		c-26.45,0-47.9,20.37-47.9,45.49v431.2c0,25.12,21.44,45.49,47.9,45.49h175.33c26.45,0,47.9-20.37,47.9-45.49V180.04h3.02V124.09z"
		/>
	<path id="Path_341" class="st3" d="M393.72,11.84h-22.89c2.14,4.97,1.52,10.7-1.63,15.1c-3.27,4.52-8.52,7.18-14.1,7.14H254.66
		c-5.58,0.04-10.83-2.62-14.1-7.14c-3.15-4.4-3.77-10.13-1.63-15.1h-21.38c-19.75,0-35.77,15.21-35.77,33.97v430.56
		c0,18.76,16.01,33.97,35.77,33.97h176.17c19.75,0,35.77-15.21,35.77-33.97l0,0V45.81C429.49,27.05,413.47,11.84,393.72,11.84
		L393.72,11.84z"/>
	<path id="Path_342" class="st0" d="M309.02,372.03c-25.94,0.13-50.94-9.7-69.86-27.45c-18.35-17.2-28.81-41.2-28.9-66.35
		c-0.04-35.28,20.8-67.59,53.91-83.58c23.95-11.5,51.41-13.37,76.7-5.23c45.73,14.8,73.48,58.86,65.59,104.13
		S357.34,372.02,309.02,372.03L309.02,372.03z M309.02,188.11c-14.92-0.06-29.66,3.3-43.09,9.82
		c-31.77,15.37-51.79,46.36-51.82,80.23s19.93,64.89,51.68,80.31c31.86,15.41,69.52,12.67,98.81-7.2c5.1-3.49,9.84-7.48,14.15-11.92
		c25.59-26.3,32.35-64.48,17.23-97.28S346.72,188.08,309.02,188.11L309.02,188.11z"/>
	<path id="Path_343" class="st4" d="M95.01,194.98c5.41,0.61,10.29,3.52,13.39,8c2.99,4.36,3.77,9.86,2.13,14.88l32.81,25.96
		l-11.74,22.79l-45.8-37.28c-8.89-3.25-13.81-12.3-11.46-21.06S85.57,193.8,95.01,194.98L95.01,194.98z"/>
	<path id="Path_344" class="st5" d="M401.48,303.24c-0.66-6.72-3.38-18.8-5.69-23.26c-7.1-17.64-52.95-32.14-59.11-34.01
		l-1.56-16.49l-63.71-6.51l-8.08,21.09l-22.85,8.14c-3.09,1.06-5.54,3.45-6.69,6.51l0,0l-20.5,5.63l-20.23,5.56l-70.28-47.04
		l-3.32,2.06l-22.18,13.75l-3.42,2.12l90.95,77.93l33.79-7.53l25.41-5.68l2.17,8.36l-5.61,29.38c33.61,31.93,86.66,35.96,125.18,9.5
		l14.43-12.16c9.98-10.2,17.41-22.6,21.7-36.21L401.48,303.24z"/>
	<path id="Path_364" class="st4" d="M294.45,126.76c24.05-7.56,50,4.83,57.97,27.67s-5.08,47.49-29.13,55.05s-50-4.82-57.96-27.66
		C257.36,158.97,270.4,134.32,294.45,126.76z"/>
	<path id="Path_345" class="st6" d="M272.63,118.45c9.43-12.72,26.97-16.21,40.55-8.06c7.04-2.69,14.63-4.48,22.08-3.57
		s14.76,4.86,18.21,11.38c0.73,1.69,1.61,3.32,2.63,4.85c3.04,3.85,8.69,4.35,13.68,4.54l-7.57,4.19l7.54,3.34l-10.27,3.72
		c7.96,6.65,9.89,18.48,6.87,28.4c-2.85,9.39-9.4,17.3-16.71,24.07c-1.43-5.05,0.14-10.53,1.19-15.76
		c1.1-5.52,1.28-11.99-2.79-15.89c-2.75-2.63-6.78-3.43-10.58-4.07c-19.18-3.22-38.53-5.4-57.95-6.54c-2.6-0.34-5.24-0.09-7.72,0.75
		c-4.73,2-6.63,7.48-8,12.34c-0.66-8.53-0.13-17.12,1.56-25.51C266.66,130.21,268.7,123.78,272.63,118.45z"/>
	<path id="Path_346" class="st7" d="M332.26,416.23h-54.22c-3.72,0.19-6.9-2.67-7.09-6.4c-0.19-3.72,2.67-6.9,6.4-7.09
		c0.23-0.01,0.46-0.01,0.7,0h54.22c3.72-0.19,6.9,2.67,7.09,6.4s-2.67,6.9-6.4,7.09C332.72,416.24,332.49,416.24,332.26,416.23z"/>
	<path id="Path_347" class="st8" d="M154.33,55.33H5.19c-2.72,0.13-5.04-1.96-5.17-4.68c-0.13-2.72,1.96-5.04,4.68-5.17
		c0.16-0.01,0.32-0.01,0.49,0h149.14c2.72-0.13,5.04,1.96,5.17,4.68c0.13,2.72-1.96,5.04-4.68,5.17
		C154.65,55.34,154.49,55.34,154.33,55.33z"/>
	<path id="Path_348" class="st8" d="M240.44,86.8H5.19c-2.72,0.14-5.04-1.95-5.18-4.67c-0.14-2.72,1.95-5.04,4.67-5.18
		c0.17-0.01,0.34-0.01,0.51,0h235.26c2.72-0.14,5.04,1.95,5.18,4.67c0.14,2.72-1.95,5.04-4.67,5.18
		C240.78,86.81,240.61,86.81,240.44,86.8z"/>
	<path id="Path_349" class="st9" d="M195.23,116.45H5.19c-2.72,0.14-5.04-1.95-5.18-4.67s1.95-5.04,4.67-5.18
		c0.17-0.01,0.34-0.01,0.51,0h190.05c2.72-0.14,5.04,1.95,5.18,4.67s-1.95,5.04-4.67,5.18C195.57,116.45,195.4,116.45,195.23,116.45
		z"/>
	<path id="Path_350" class="st9" d="M112.35,145.98H5.19c-2.72,0.14-5.04-1.95-5.18-4.67s1.95-5.04,4.67-5.18
		c0.17-0.01,0.34-0.01,0.51,0h107.17c2.72-0.14,5.04,1.95,5.18,4.67s-1.95,5.04-4.67,5.18
		C112.69,145.99,112.52,145.99,112.35,145.98z"/>
	<path id="Path_351" class="st9" d="M171.55,175.51H5.19c-2.72,0.14-5.04-1.95-5.18-4.67s1.95-5.04,4.67-5.18
		c0.17-0.01,0.34-0.01,0.51,0h166.37c2.72-0.14,5.04,1.95,5.18,4.67s-1.95,5.04-4.67,5.18
		C171.89,175.52,171.72,175.52,171.55,175.51z"/>
	<path id="Path_352" class="st10" d="M640.42,657.51h-13.37l-6.36-48.97h19.73L640.42,657.51z"/>
	<path id="Path_353" class="st6" d="M645.68,675.08h-51.03v-0.61c0-10.42,8.89-18.86,19.86-18.87l0,0l9.32-6.72l17.39,6.72h4.46
		L645.68,675.08z"/>
	<path id="Path_354" class="st10" d="M632.63,427.35l-5.9-68.27l-4.63-25.62l25.93-5.44l8.6,35.08l-7.5,66.15
		c3.09,3.53,3.58,8.65,1.21,12.7c-2.48,4.13-7.16,6.41-11.95,5.82c-4.76-0.48-8.76-3.77-10.14-8.35
		C627.01,434.88,628.76,430.05,632.63,427.35L632.63,427.35z"/>
	<path id="Path_355" class="st10" d="M569.41,657.51h-13.37l-6.36-48.97h19.73L569.41,657.51z"/>
	<path id="Path_356" class="st6" d="M548.02,442.83l-5.93,9.74c0,0-6.51,1.69-4.38,21.85s2.22,139.6,12.52,154.3l1.86,12.62
		l19.45,1.77l0.49-11.2l23.19-155.58c0,0,13.66,152.73,24.96,156.47l4.08,12.72l17.83,0.01l-1.05-15l1.15-189.27L548.02,442.83z"/>
	<path id="Path_357" class="st11" d="M541.51,451.83l-0.41-0.1c12.23-43.45,8.7-99.72,0.07-160.13v-0.25l31.22-27.16h27.11
		l26.88,16.47c17.38,8.25,21.32,25.72,21.36,25.9l0.03,0.12l-10.65,35.29l8.02,102.07l0.01,0.12l-0.05,0.11
		c-2.6,6.25-9.55,5.36-17.6,4.33s-37.68,8.39-46.76,8.39C562.99,456.98,542.78,452.13,541.51,451.83z"/>
	<path id="Path_358" class="st11" d="M620.74,294.41l11.65-4.81l15.34,17.87l12.44,57.26l-42.6-6.13L620.74,294.41z"/>
	<path id="Path_359" class="st10" d="M441.6,400l53.24-46.21l18.5-19.16l20.4,16.15l-23.95,27.93l-59.66,34.85
		c-1.21,4.62-5.09,8.05-9.83,8.68c-4.76,0.75-9.52-1.37-12.15-5.41c-2.51-3.96-2.21-9.09,0.74-12.73
		C431.97,400.36,436.93,398.76,441.6,400z"/>
	<path id="Path_360" class="st11" d="M493.69,354.29l14.75-18.19c0.12-0.26,12.36-26.23,22.96-37.51
		c10.88-11.57,19.44-5.65,19.53-5.59l0.21,0.15l0.59,42.74l-40.83,46.34L493.69,354.29z"/>
	<path id="Path_365" class="st10" d="M558.72,231.03c2.2-12.87,14.96-21.61,28.51-19.52c13.55,2.09,22.75,14.21,20.55,27.08
		c-2.2,12.87-14.96,21.61-28.51,19.52S556.52,243.9,558.72,231.03z"/>
	<path id="Path_361" class="st6" d="M560.53,231.31c0,0-0.2-8.3-1.3-11.97s-3.31-6.82-2.21-6.82s1.66-2.62,1.66-2.62
		s1.1-0.52,1.66,0s1.1-3.67,1.1-3.67s0.55-1.57,1.1-0.52s0.55,0.52,1.1-1.05s3.31-2.62,3.31-2.62s10.49,0.52,12.15-1.57
		s20.43-0.52,24.3,2.1s21,12.06,18.24,19.93s-10.71,25.98-12.7,27.8c-3.15,2.87-5.33,3.91-20.24,6.72
		c-2.92,0.55-17.81-8.49-17.81-10.07s1.8-6.56-1.09-7.25c-4.36-1.04-4.85,4.2-5.96,2.63S560.53,231.31,560.53,231.31z"/>
	<path id="Path_362" class="st6" d="M574.67,675.08h-51.03v-0.61c0-10.42,8.89-18.86,19.86-18.87l0,0l9.32-6.72l17.39,6.72h4.46
		L574.67,675.08z"/>
	<path id="Path_363" class="st12" d="M839.96,676H4.3c-0.81,0.04-1.49-0.58-1.54-1.38c-0.04-0.81,0.58-1.49,1.38-1.54
		c0.05,0,0.1,0,0.15,0h835.67c0.81-0.04,1.49,0.58,1.54,1.38c0.04,0.81-0.58,1.49-1.38,1.54C840.06,676,840.01,676,839.96,676
		L839.96,676z"/>
</g>
</svg>
